<svg xmlns="http://www.w3.org/2000/svg" version="1.1" xmlns:xlink="http://www.w3.org/1999/xlink" xmlns:svgjs="http://svgjs.dev/svgjs" viewBox="0 0 800 800" opacity="0.17" width="800" height="800"><g stroke-width="3.75" stroke="#5d5c5e" fill="none"><circle r="7.631578947368421" cx="0" cy="0" fill="#5d5c5e" stroke="none"></circle><circle r="7.631578947368421" cx="100" cy="0" fill="#5d5c5e" stroke="none"></circle><circle r="7.631578947368421" cx="200" cy="0" fill="#5d5c5e" stroke="none"></circle><circle r="7.631578947368421" cx="300" cy="0" fill="#5d5c5e" stroke="none"></circle><circle r="7.631578947368421" cx="400" cy="0" fill="#5d5c5e" stroke="none"></circle><circle r="7.631578947368421" cx="500" cy="0" fill="#5d5c5e" stroke="none"></circle><circle r="7.631578947368421" cx="600" cy="0" fill="#5d5c5e" stroke="none"></circle><circle r="7.631578947368421" cx="700" cy="0" fill="#5d5c5e" stroke="none"></circle><circle r="7.631578947368421" cx="800" cy="0" fill="#5d5c5e" stroke="none"></circle><circle r="7.631578947368421" cx="0" cy="72.72727272727273" fill="#5d5c5e" stroke="none"></circle><circle r="7.631578947368421" cx="100" cy="72.72727272727273" fill="#5d5c5e" stroke="none"></circle><circle r="7.631578947368421" cx="200" cy="72.72727272727273" fill="#5d5c5e" stroke="none"></circle><circle r="7.631578947368421" cx="300" cy="72.72727272727273" fill="#5d5c5e" stroke="none"></circle><circle r="7.631578947368421" cx="400" cy="72.72727272727273" fill="#5d5c5e" stroke="none"></circle><circle r="7.631578947368421" cx="500" cy="72.72727272727273" fill="none"></circle><circle r="7.631578947368421" cx="600" cy="72.72727272727273" fill="#5d5c5e" stroke="none"></circle><circle r="7.631578947368421" cx="700" cy="72.72727272727273" fill="none"></circle><circle r="7.631578947368421" cx="800" cy="72.72727272727273" fill="#5d5c5e" stroke="none"></circle><circle r="7.631578947368421" cx="0" cy="145.45454545454547" fill="#5d5c5e" stroke="none"></circle><circle r="7.631578947368421" cx="100" cy="145.45454545454547" fill="none"></circle><circle r="7.631578947368421" cx="200" cy="145.45454545454547" fill="#5d5c5e" stroke="none"></circle><circle r="7.631578947368421" cx="300" cy="145.45454545454547" fill="#5d5c5e" stroke="none"></circle><circle r="7.631578947368421" cx="400" cy="145.45454545454547" fill="#5d5c5e" stroke="none"></circle><circle r="7.631578947368421" cx="500" cy="145.45454545454547" fill="none"></circle><circle r="7.631578947368421" cx="600" cy="145.45454545454547" fill="#5d5c5e" stroke="none"></circle><circle r="7.631578947368421" cx="700" cy="145.45454545454547" fill="#5d5c5e" stroke="none"></circle><circle r="7.631578947368421" cx="800" cy="145.45454545454547" fill="#5d5c5e" stroke="none"></circle><circle r="7.631578947368421" cx="0" cy="218.1818181818182" fill="#5d5c5e" stroke="none"></circle><circle r="7.631578947368421" cx="100" cy="218.1818181818182" fill="none"></circle><circle r="7.631578947368421" cx="200" cy="218.1818181818182" fill="#5d5c5e" stroke="none"></circle><circle r="7.631578947368421" cx="300" cy="218.1818181818182" fill="none"></circle><circle r="7.631578947368421" cx="400" cy="218.1818181818182" fill="#5d5c5e" stroke="none"></circle><circle r="7.631578947368421" cx="500" cy="218.1818181818182" fill="#5d5c5e" stroke="none"></circle><circle r="7.631578947368421" cx="600" cy="218.1818181818182" fill="none"></circle><circle r="7.631578947368421" cx="700" cy="218.1818181818182" fill="#5d5c5e" stroke="none"></circle><circle r="7.631578947368421" cx="800" cy="218.1818181818182" fill="#5d5c5e" stroke="none"></circle><circle r="7.631578947368421" cx="0" cy="290.90909090909093" fill="#5d5c5e" stroke="none"></circle><circle r="7.631578947368421" cx="100" cy="290.90909090909093" fill="#5d5c5e" stroke="none"></circle><circle r="7.631578947368421" cx="200" cy="290.90909090909093" fill="none"></circle><circle r="7.631578947368421" cx="300" cy="290.90909090909093" fill="#5d5c5e" stroke="none"></circle><circle r="7.631578947368421" cx="400" cy="290.90909090909093" fill="none"></circle><circle r="7.631578947368421" cx="500" cy="290.90909090909093" fill="#5d5c5e" stroke="none"></circle><circle r="7.631578947368421" cx="600" cy="290.90909090909093" fill="#5d5c5e" stroke="none"></circle><circle r="7.631578947368421" cx="700" cy="290.90909090909093" fill="#5d5c5e" stroke="none"></circle><circle r="7.631578947368421" cx="800" cy="290.90909090909093" fill="#5d5c5e" stroke="none"></circle><circle r="7.631578947368421" cx="0" cy="363.6363636363637" fill="#5d5c5e" stroke="none"></circle><circle r="7.631578947368421" cx="100" cy="363.6363636363637" fill="#5d5c5e" stroke="none"></circle><circle r="7.631578947368421" cx="200" cy="363.6363636363637" fill="none"></circle><circle r="7.631578947368421" cx="300" cy="363.6363636363637" fill="#5d5c5e" stroke="none"></circle><circle r="7.631578947368421" cx="400" cy="363.6363636363637" fill="none"></circle><circle r="7.631578947368421" cx="500" cy="363.6363636363637" fill="#5d5c5e" stroke="none"></circle><circle r="7.631578947368421" cx="600" cy="363.6363636363637" fill="#5d5c5e" stroke="none"></circle><circle r="7.631578947368421" cx="700" cy="363.6363636363637" fill="none"></circle><circle r="7.631578947368421" cx="800" cy="363.6363636363637" fill="#5d5c5e" stroke="none"></circle><circle r="7.631578947368421" cx="0" cy="436.36363636363643" fill="#5d5c5e" stroke="none"></circle><circle r="7.631578947368421" cx="100" cy="436.36363636363643" fill="#5d5c5e" stroke="none"></circle><circle r="7.631578947368421" cx="200" cy="436.36363636363643" fill="#5d5c5e" stroke="none"></circle><circle r="7.631578947368421" cx="300" cy="436.36363636363643" fill="#5d5c5e" stroke="none"></circle><circle r="7.631578947368421" cx="400" cy="436.36363636363643" fill="#5d5c5e" stroke="none"></circle><circle r="7.631578947368421" cx="500" cy="436.36363636363643" fill="none"></circle><circle r="7.631578947368421" cx="600" cy="436.36363636363643" fill="#5d5c5e" stroke="none"></circle><circle r="7.631578947368421" cx="700" cy="436.36363636363643" fill="#5d5c5e" stroke="none"></circle><circle r="7.631578947368421" cx="800" cy="436.36363636363643" fill="#5d5c5e" stroke="none"></circle><circle r="7.631578947368421" cx="0" cy="509.0909090909092" fill="#5d5c5e" stroke="none"></circle><circle r="7.631578947368421" cx="100" cy="509.0909090909092" fill="#5d5c5e" stroke="none"></circle><circle r="7.631578947368421" cx="200" cy="509.0909090909092" fill="none"></circle><circle r="7.631578947368421" cx="300" cy="509.0909090909092" fill="#5d5c5e" stroke="none"></circle><circle r="7.631578947368421" cx="400" cy="509.0909090909092" fill="#5d5c5e" stroke="none"></circle><circle r="7.631578947368421" cx="500" cy="509.0909090909092" fill="none"></circle><circle r="7.631578947368421" cx="600" cy="509.0909090909092" fill="#5d5c5e" stroke="none"></circle><circle r="7.631578947368421" cx="700" cy="509.0909090909092" fill="#5d5c5e" stroke="none"></circle><circle r="7.631578947368421" cx="800" cy="509.0909090909092" fill="#5d5c5e" stroke="none"></circle><circle r="7.631578947368421" cx="0" cy="581.8181818181819" fill="#5d5c5e" stroke="none"></circle><circle r="7.631578947368421" cx="100" cy="581.8181818181819" fill="#5d5c5e" stroke="none"></circle><circle r="7.631578947368421" cx="200" cy="581.8181818181819" fill="#5d5c5e" stroke="none"></circle><circle r="7.631578947368421" cx="300" cy="581.8181818181819" fill="#5d5c5e" stroke="none"></circle><circle r="7.631578947368421" cx="400" cy="581.8181818181819" fill="none"></circle><circle r="7.631578947368421" cx="500" cy="581.8181818181819" fill="none"></circle><circle r="7.631578947368421" cx="600" cy="581.8181818181819" fill="#5d5c5e" stroke="none"></circle><circle r="7.631578947368421" cx="700" cy="581.8181818181819" fill="none"></circle><circle r="7.631578947368421" cx="800" cy="581.8181818181819" fill="#5d5c5e" stroke="none"></circle><circle r="7.631578947368421" cx="0" cy="654.5454545454546" fill="#5d5c5e" stroke="none"></circle><circle r="7.631578947368421" cx="100" cy="654.5454545454546" fill="#5d5c5e" stroke="none"></circle><circle r="7.631578947368421" cx="200" cy="654.5454545454546" fill="#5d5c5e" stroke="none"></circle><circle r="7.631578947368421" cx="300" cy="654.5454545454546" fill="#5d5c5e" stroke="none"></circle><circle r="7.631578947368421" cx="400" cy="654.5454545454546" fill="#5d5c5e" stroke="none"></circle><circle r="7.631578947368421" cx="500" cy="654.5454545454546" fill="#5d5c5e" stroke="none"></circle><circle r="7.631578947368421" cx="600" cy="654.5454545454546" fill="#5d5c5e" stroke="none"></circle><circle r="7.631578947368421" cx="700" cy="654.5454545454546" fill="none"></circle><circle r="7.631578947368421" cx="800" cy="654.5454545454546" fill="#5d5c5e" stroke="none"></circle><circle r="7.631578947368421" cx="0" cy="727.2727272727274" fill="#5d5c5e" stroke="none"></circle><circle r="7.631578947368421" cx="100" cy="727.2727272727274" fill="none"></circle><circle r="7.631578947368421" cx="200" cy="727.2727272727274" fill="#5d5c5e" stroke="none"></circle><circle r="7.631578947368421" cx="300" cy="727.2727272727274" fill="#5d5c5e" stroke="none"></circle><circle r="7.631578947368421" cx="400" cy="727.2727272727274" fill="#5d5c5e" stroke="none"></circle><circle r="7.631578947368421" cx="500" cy="727.2727272727274" fill="#5d5c5e" stroke="none"></circle><circle r="7.631578947368421" cx="600" cy="727.2727272727274" fill="#5d5c5e" stroke="none"></circle><circle r="7.631578947368421" cx="700" cy="727.2727272727274" fill="none"></circle><circle r="7.631578947368421" cx="800" cy="727.2727272727274" fill="#5d5c5e" stroke="none"></circle><circle r="7.631578947368421" cx="0" cy="800.0000000000001" fill="#5d5c5e" stroke="none"></circle><circle r="7.631578947368421" cx="100" cy="800.0000000000001" fill="#5d5c5e" stroke="none"></circle><circle r="7.631578947368421" cx="200" cy="800.0000000000001" fill="#5d5c5e" stroke="none"></circle><circle r="7.631578947368421" cx="300" cy="800.0000000000001" fill="#5d5c5e" stroke="none"></circle><circle r="7.631578947368421" cx="400" cy="800.0000000000001" fill="#5d5c5e" stroke="none"></circle><circle r="7.631578947368421" cx="500" cy="800.0000000000001" fill="#5d5c5e" stroke="none"></circle><circle r="7.631578947368421" cx="600" cy="800.0000000000001" fill="#5d5c5e" stroke="none"></circle><circle r="7.631578947368421" cx="700" cy="800.0000000000001" fill="#5d5c5e" stroke="none"></circle><circle r="7.631578947368421" cx="800" cy="800.0000000000001" fill="#5d5c5e" stroke="none"></circle></g></svg>