<svg xmlns="http://www.w3.org/2000/svg"  viewBox="0 0 64 64" width="64px" height="64px" baseProfile="basic"><ellipse cx="32" cy="61" opacity=".3" rx="17" ry="3"/><polygon fill="#ffce29" points="45,50 19,50 19,36.268 32.146,13 45,36.48"/><polygon fill="#ffce29" points="32,48 32,34 11,18 14,48"/><polygon fill="#ffce29" points="32,48 32,34 53,18 50,48"/><path fill="orange" d="M49.5,53h-35c-2.485,0-4.5-2.015-4.5-4.5v0c0-2.485,2.015-4.5,4.5-4.5h35c2.485,0,4.5,2.015,4.5,4.5	v0C54,50.985,51.985,53,49.5,53z"/><path fill="#fff" d="M28.161,30.219l6.812-12.056L32.146,13l-8.338,14.758L11,18l2.609,26.09 c-1.774,0.356-3.164,1.757-3.517,3.531c0.912,0.907,2.153,1.469,3.511,1.469c0.166,0,0.334-0.008,0.504-0.024 c2.747-0.275,4.752-2.726,4.478-5.474L17.12,28.949l3.657,2.787c1.148,0.875,2.62,1.209,4.037,0.92 C26.229,32.365,27.45,31.477,28.161,30.219z" opacity=".3"/><path d="M54,48.5c0-2.18-1.551-3.997-3.609-4.41l2.199-21.994c-2.769-0.273-5.198,1.731-5.473,4.478 l-1.702,17.019c-0.174,1.742,0.57,3.38,1.858,4.408H31c-2.762,0-5,2.238-5,5h23.5C51.985,53,54,50.985,54,48.5z" opacity=".15"/><circle cx="12" cy="20" r="6" fill="orange"/><path fill="none" stroke="#fff" stroke-linecap="round" stroke-miterlimit="10" stroke-width="3" d="M9,20c0-1.654,1.346-3,3-3"/><circle cx="32" cy="14" r="6" fill="orange"/><path fill="none" stroke="#fff" stroke-linecap="round" stroke-miterlimit="10" stroke-width="3" d="M29,14c0-1.654,1.346-3,3-3"/><circle cx="52" cy="20" r="6" fill="orange"/><path fill="none" stroke="#fff" stroke-linecap="round" stroke-miterlimit="10" stroke-width="3" d="M49,20c0-1.654,1.346-3,3-3"/></svg>