<svg enable-background="new 0 0 236.026 266" height="266" viewBox="0 0 236.026 266" width="237" xmlns="http://www.w3.org/2000/svg" xmlns:xlink="http://www.w3.org/1999/xlink"><linearGradient id="a" gradientTransform="matrix(1 0 0 -1 0 570)" gradientUnits="userSpaceOnUse" x1="159.027" x2="159.027" y1="302.0702" y2="414.2659"><stop offset="0" stop-color="#ffd478"/><stop offset=".3431" stop-color="#ffd375"/><stop offset=".6187" stop-color="#ffce6b"/><stop offset=".8699" stop-color="#ffc75a"/><stop offset="1" stop-color="#ffc24e"/></linearGradient><linearGradient id="b" gradientTransform="matrix(1 0 0 -1 0 570)" gradientUnits="userSpaceOnUse" x1="142.026" x2="178.026" y1="411" y2="411"><stop offset="0" stop-color="#f0f0f0"/><stop offset="1" stop-color="#d3d3d3"/></linearGradient><linearGradient id="c" gradientTransform="matrix(1 0 0 -1 0 570)" gradientUnits="userSpaceOnUse" x1="90.027" x2="236.026" y1="472.125" y2="472.125"><stop offset="0" stop-color="#f48851"/><stop offset=".2084" stop-color="#f48457"/><stop offset=".4812" stop-color="#f47a67"/><stop offset=".7882" stop-color="#f46982"/><stop offset="1" stop-color="#f45b99"/></linearGradient><linearGradient id="d" gradientTransform="matrix(1 0 0 -1 0 570)" gradientUnits="userSpaceOnUse" x1="90.0275" x2="90.0275" y1="535.8566" y2="415.248"><stop offset="0" stop-color="#f48851"/><stop offset=".366" stop-color="#f77f4b"/><stop offset=".9612" stop-color="#fe673c"/><stop offset="1" stop-color="#ff653b"/></linearGradient><linearGradient id="e" gradientTransform="matrix(1 0 0 -1 0 570)" gradientUnits="userSpaceOnUse" x1="66.028" x2="114.028" y1="468.25" y2="468.25"><stop offset="0" stop-color="#ce6346"/><stop offset=".8581" stop-color="#cc613d"/><stop offset="1" stop-color="#cc613b"/></linearGradient><linearGradient id="f" gradientTransform="matrix(1 0 0 -1 0 570)" gradientUnits="userSpaceOnUse" x1="90.027" x2="90.027" y1="522.5" y2="494.2821"><stop offset="0" stop-opacity=".1"/><stop offset=".1227" stop-color="#0b0909" stop-opacity=".0877"/><stop offset=".421" stop-color="#1f1b19" stop-opacity=".0579"/><stop offset=".7156" stop-color="#2c2523" stop-opacity=".0284"/><stop offset="1" stop-color="#302926" stop-opacity="0"/></linearGradient><linearGradient id="g" gradientTransform="matrix(1 0 0 -1 0 570)" gradientUnits="userSpaceOnUse" x1="179.027" x2="179.027" y1="420.3421" y2="510.6175"><stop offset="0" stop-color="#720039" stop-opacity=".2"/><stop offset=".3966" stop-color="#511430" stop-opacity=".1207"/><stop offset=".7706" stop-color="#392329" stop-opacity=".0459"/><stop offset="1" stop-color="#302926" stop-opacity="0"/></linearGradient><linearGradient id="h" gradientTransform="matrix(1 0 0 -1 0 570)" gradientUnits="userSpaceOnUse" x1="157.027" x2="157.027" y1="570.9946" y2="477.1242"><stop offset="0" stop-color="#d85c4e"/><stop offset=".3445" stop-color="#d85356"/><stop offset=".9047" stop-color="#d83b6d"/><stop offset="1" stop-color="#d83671"/></linearGradient><linearGradient id="i" gradientTransform="matrix(1 0 0 -1 0 570)" gradientUnits="userSpaceOnUse" x1="150" x2="150" y1="494.8336" y2="482.9358"><stop offset="0" stop-opacity=".1"/><stop offset="1" stop-color="#302926" stop-opacity="0"/></linearGradient><linearGradient id="j" gradientTransform="matrix(1 0 0 -1 0 570)" gradientUnits="userSpaceOnUse" x1="0" x2="116.027" y1="418" y2="418"><stop offset="0" stop-color="#f48851"/><stop offset="1" stop-color="#ff653b"/></linearGradient><linearGradient id="k" gradientTransform="matrix(1 0 0 -1 0 570)" gradientUnits="userSpaceOnUse" x1="169.027" x2="169.027" y1="408.4057" y2="304.4266"><stop offset="0" stop-color="#db4f00" stop-opacity=".3"/><stop offset=".1575" stop-color="#de5800" stop-opacity=".2527"/><stop offset=".4144" stop-color="#e67000" stop-opacity=".1757"/><stop offset=".7367" stop-color="#f39800" stop-opacity=".079"/><stop offset="1" stop-color="#ffbd00" stop-opacity="0"/></linearGradient><linearGradient id="l"><stop offset="0" stop-opacity=".05"/><stop offset="1" stop-color="#302926" stop-opacity="0"/></linearGradient><linearGradient id="m" gradientTransform="matrix(1 0 0 -1 0 570)" gradientUnits="userSpaceOnUse" x1="179.027" x2="179.027" xlink:href="#l" y1="421.6667" y2="426.051"/><linearGradient id="n"><stop offset="0" stop-color="#db4f00" stop-opacity=".12"/><stop offset=".1575" stop-color="#de5800" stop-opacity=".1011"/><stop offset=".4144" stop-color="#e67000" stop-opacity=".0703"/><stop offset=".7367" stop-color="#f39800" stop-opacity=".0316"/><stop offset="1" stop-color="#ffbd00" stop-opacity="0"/></linearGradient><linearGradient id="o" gradientTransform="matrix(1 0 0 -1 0 570)" gradientUnits="userSpaceOnUse" x1="159.027" x2="159.027" xlink:href="#n" y1="406" y2="401.5"/><linearGradient id="p" gradientTransform="matrix(1 0 0 -1 0 570)" gradientUnits="userSpaceOnUse" x1="90.027" x2="90.027" xlink:href="#l" y1="422" y2="429.5374"/><linearGradient id="q" gradientTransform="matrix(1 0 0 -1 0 570)" gradientUnits="userSpaceOnUse" x1="159.027" x2="159.027" xlink:href="#n" y1="303.9167" y2="308.0414"/><path d="m146.027 156h26v110h-26z" fill="url(#a)"/><path d="m174.084 164h-28.167c-2.163 0-3.891-2.254-3.891-4.417v-5.583h36v5.583c.001 2.163-1.779 4.417-3.942 4.417z" fill="url(#b)"/><path d="m178.027 154v5.58c0 2.16-1.786 4.42-3.946 4.42h-6c2.16 0 3.946-2.26 3.946-4.42v-5.58z" opacity=".1"/><path d="m232 156h-141.973v-116h113.973l.013-.25c17.673 0 32.013 14.077 32.013 31.75v80c.001 2.209-1.817 4.5-4.026 4.5z" fill="url(#c)"/><path d="m122.027 156h-64v-84.5c0-17.673 14.314-32 31.987-32h.007c17.673 0 32.007 14.327 32.007 32z" fill="url(#d)"/><path d="m90.014 47.5h.007c13.255 0 24.007 10.745 24.007 24v84.5h-48v-84.5c-.001-13.255 10.731-24 23.986-24z" fill="url(#e)"/><path d="m114.027 71.5v4c0-13.26-10.74-24-24-24s-24 10.74-24 24v-4c0-13.26 10.74-24 24-24s24 10.74 24 24z" fill="url(#f)"/><path d="m228.027 148h-98v-80.5c0-2.209 1.764-3.5 3.973-3.5h90c2.209 0 4.027 1.291 4.027 3.5z" fill="url(#g)"/><path d="m220.027 130c0-1.105-.895-2-2-2h-24c-1.105 0-2 .895-2 2 0 1.105.895 2 2 2h24c1.105 0 2-.895 2-2z" opacity=".1"/><path d="m220.027 122c0-1.105-.895-2-2-2h-16c-1.105 0-2 .895-2 2 0 1.105.895 2 2 2h16c1.105 0 2-.895 2-2z" opacity=".1"/><path d="m170 0h-22c-4.418 0-7.973 3.081-7.973 7.5v73.543c0 5.452 4.151 10.244 9.599 10.45 6.26.236 11.293-5.283 10.241-11.688-.636-3.871-3.628-7.089-7.44-8.013-2.314-.561-4.4-.28-6.4.552v-50.844c0-1.105.869-1.5 1.973-1.5h18c4.418 0 8.027-4.082 8.027-8.5v-8c0-2.209-1.818-3.5-4.027-3.5z" fill="url(#h)"/><circle cx="150" cy="81.5" fill="url(#i)" r="5"/><path d="m174 3.75v.125c0-1.1-.9-1.875-2-1.875h-24c-4.42 0-7.973 3.08-7.973 7.5v-2c0-4.418 3.555-7.5 7.973-7.5h22c2.2 0 4 1.55 4 3.75z" fill="#fff" opacity=".15"/><path d="m4 148h112.027v8h-112.027c-2.209 0-4-2.041-4-4.25v.125c0-2.209 1.791-3.875 4-3.875z" fill="url(#j)"/><path d="m166.027 164h6v102h-6z" fill="url(#k)"/><path d="m130.027 144h98v4h-98z" fill="url(#m)"/><path d="m146.027 164h26v4h-26z" fill="url(#o)"/><path d="m66.027 140h48v8h-48z" fill="url(#p)"/><path d="m146.027 262h26v4h-26z" fill="url(#q)"/><path d="m144.027 168h18v2h-18z" fill="#f4a44d"/></svg>