<?xml version="1.0" encoding="UTF-8"?><svg id="uuid-3df93870-3916-4e39-8a6f-de0ab3975dd6" xmlns="http://www.w3.org/2000/svg" viewBox="0 0 84.12 12.93"><g id="uuid-fff6864d-ceee-46a1-9aa5-6dee7ef3896b"><path d="m1.36,9.48c-.91-.82-1.36-1.98-1.36-3.49s.45-2.72,1.36-3.61c.91-.88,2.32-1.32,4.24-1.32,2.68,0,4.48.92,5.39,2.76-.76.26-1.66.66-2.69,1.18-.25-.48-.63-.83-1.17-1.06-.53-.23-1.07-.34-1.62-.34-.82,0-1.42.21-1.82.64-.4.43-.6.96-.6,1.59,0,.68.21,1.23.64,1.66.43.43,1.08.64,1.97.64.7,0,1.27-.12,1.68-.35.42-.23.72-.61.92-1.11.7.37,1.59.79,2.68,1.26-.42,1.03-1.13,1.75-2.13,2.15s-2.08.61-3.25.61c-1.92,0-3.33-.41-4.24-1.22Z" fill="#fff"/><path d="m16.98,10.57c.05-1.25.08-2.4.08-3.45,0-.37-.09-.67-.27-.89-.18-.22-.41-.33-.69-.33-.3,0-.55.14-.76.43-.21.29-.31.68-.31,1.18v-.03c-.01,1.38,0,2.41.04,3.08h-3.04c.07-1.22.1-2.88.1-4.97s-.03-3.75-.1-4.97h3.03v3.92s0,.68,0,.68c.2-.59.51-1.03.91-1.32.4-.28.86-.43,1.37-.43s.95.11,1.32.34c.37.23.66.53.85.91.19.38.29.81.29,1.29v1.83c0,1.13.02,2.03.06,2.71h-2.87Z" fill="#fff"/><path d="m21.38,2.47c-.26-.26-.39-.61-.39-1.03s.13-.76.39-1.03c.26-.27.66-.41,1.19-.41s.9.14,1.17.41c.27.28.41.62.41,1.03s-.13.77-.39,1.03c-.26.26-.66.39-1.18.39s-.93-.13-1.19-.39Zm-.29,8.1c.06-1.37.09-2.5.09-3.39,0-1.06-.03-2.25-.1-3.57h3.06c-.07,1.27-.1,2.45-.1,3.57,0,.93.03,2.06.09,3.39h-3.03Z" fill="#fff"/><path d="m31.07,5.9c-.78-.05-1.49-.09-2.14-.11v1.35c-.01.46.09.82.29,1.08.2.26.55.39,1.06.39.2,0,.38-.02.56-.05-.03.31-.05.63-.05.96,0,.15,0,.5.03,1.04-.37.07-.69.11-.94.13s-.59.03-.99.03c-.99,0-1.7-.24-2.11-.72-.41-.48-.62-1.15-.62-2.01v-2.15c-.39.02-.8.04-1.24.08v-2.25c.44,0,.82-.14,1.12-.42.31-.28.49-.62.55-1.01h3.47c-.43.59-.91,1.07-1.44,1.43h2.46v2.25Z" fill="#fff"/><path d="m34.83,8.14c.26.26.64.39,1.15.39.28,0,.53-.05.75-.16.22-.11.42-.27.61-.48.72.28,1.57.52,2.53.73-.28.65-.75,1.16-1.42,1.53-.67.37-1.53.55-2.59.55-1.42,0-2.47-.33-3.15-.99-.68-.66-1.02-1.53-1.02-2.61s.34-1.95,1.02-2.61c.68-.66,1.73-.99,3.15-.99,1.06,0,1.93.18,2.59.55.67.37,1.14.87,1.42,1.53-.76.16-1.6.4-2.53.73-.19-.21-.39-.37-.61-.48-.22-.11-.47-.16-.75-.16-.51,0-.89.13-1.15.39-.26.26-.4.61-.41,1.04.02.43.15.78.41,1.04Z" fill="#fff"/><path d="m45.81,10.57c.05-1.25.08-2.4.08-3.45,0-.37-.09-.67-.27-.89-.18-.22-.41-.33-.69-.33-.3,0-.55.14-.76.43-.21.29-.31.68-.31,1.18v-.03c-.01,1.38,0,2.41.04,3.08h-3.04c.07-1.22.1-2.88.1-4.97s-.03-3.75-.1-4.97h3.03v3.92s0,.68,0,.68c.2-.59.51-1.03.91-1.32.4-.28.86-.43,1.37-.43s.95.11,1.32.34c.37.23.66.53.85.91s.29.81.29,1.29v1.83c0,1.13.02,2.03.06,2.71h-2.87Z" fill="#fff"/><path d="m57.86,8.46c0,.29.03.49.1.61.07.12.2.2.41.25l-.05,1.2c-.27.04-.51.07-.71.09-.2.02-.46.03-.8.03-.73,0-1.21-.16-1.45-.49-.24-.33-.36-.75-.36-1.25v-.32c-.25.7-.61,1.21-1.08,1.55-.47.34-1.07.51-1.8.51-.85,0-1.49-.17-1.92-.51-.43-.34-.64-.84-.64-1.52,0-.55.18-.99.55-1.3.37-.31.93-.53,1.69-.65-.65-.46-1.29-.86-1.94-1.2.51-.65,1.09-1.14,1.75-1.47.65-.34,1.45-.5,2.38-.5,1.31,0,2.28.28,2.91.85.63.56.95,1.43.95,2.61v1.52Zm-4.74-2.51c-.33.14-.63.36-.89.65.51-.06,1.15-.09,1.91-.09.31,0,.53-.04.66-.11.13-.08.19-.17.19-.29,0-.1-.06-.19-.19-.26-.13-.07-.31-.11-.54-.11-.43,0-.82.07-1.15.22Zm1.1,2.34c.38-.18.65-.42.79-.72v-.33c-.2.1-.43.18-.68.24-.25.06-.54.11-.89.16l-.46.08c-.48.09-.71.25-.71.48,0,.25.22.37.66.37.48,0,.9-.09,1.29-.27Z" fill="#fff"/><path d="m64.9,5.9c-.78-.05-1.49-.09-2.14-.11v1.35c-.01.46.09.82.29,1.08.2.26.55.39,1.06.39.2,0,.38-.02.56-.05-.03.31-.05.63-.05.96,0,.15,0,.5.03,1.04-.37.07-.69.11-.94.13-.25.02-.59.03-.99.03-.99,0-1.7-.24-2.11-.72s-.62-1.15-.62-2.01v-2.15c-.39.02-.8.04-1.24.08v-2.25c.44,0,.82-.14,1.12-.42.31-.28.49-.62.55-1.01h3.47c-.43.59-.91,1.07-1.44,1.43h2.46v2.25Z" fill="#fff"/><path d="m68.66,9.75c0,.15-.03.29-.08.42s-.13.24-.22.34c-.09.1-.21.17-.33.23-.13.06-.27.08-.42.08s-.28-.03-.41-.08-.24-.13-.34-.23c-.1-.09-.17-.21-.23-.34-.06-.13-.08-.27-.08-.42s.03-.28.08-.41c.06-.13.13-.24.23-.34s.21-.17.34-.23c.13-.06.27-.08.41-.08s.29.03.42.08c.13.06.24.13.33.23.1.1.17.21.22.34s.08.27.08.41Z" fill="#f48484"/><path d="m76.38,9.54c0,.47-.09.91-.27,1.32-.18.41-.42.77-.73,1.08-.31.31-.67.55-1.08.73-.41.18-.85.27-1.32.27h-.85v-1.71h.84c.26.01.49-.02.68-.09.19-.07.34-.16.47-.28s.23-.25.31-.41c.08-.15.14-.32.18-.49-.07.11-.16.2-.29.26-.12.07-.26.12-.41.17-.15.04-.31.07-.47.09-.16.02-.32.02-.46.02-.47,0-.91-.08-1.32-.24-.41-.16-.77-.39-1.08-.69-.31-.3-.55-.67-.73-1.1-.18-.44-.27-.93-.27-1.47,0-.5.09-.97.27-1.4.18-.43.42-.8.73-1.12.31-.31.67-.56,1.08-.74.41-.18.85-.27,1.32-.27.22,0,.43.03.64.08.21.05.42.13.62.22.2.1.39.21.57.34.18.13.35.27.51.42l.66-.79h.41v5.81Zm-1.71-2.55c0-.23-.04-.46-.13-.67-.09-.22-.21-.41-.36-.58s-.33-.3-.54-.4c-.21-.1-.42-.15-.66-.15s-.45.04-.66.12c-.21.08-.38.2-.53.35s-.27.34-.36.57c-.09.23-.13.48-.13.77s.04.53.13.75c.09.22.21.41.36.57s.33.28.53.36c.21.08.42.13.66.13s.45-.05.66-.15c.21-.1.38-.24.54-.4s.28-.36.36-.58.13-.44.13-.67Z" fill="#f48484"/><path d="m84.12,9.54c0,.47-.09.91-.27,1.32-.18.41-.42.77-.73,1.08-.31.31-.67.55-1.08.73-.41.18-.85.27-1.32.27h-.85v-1.71h.84c.26.01.49-.02.68-.09.19-.07.34-.16.47-.28s.23-.25.31-.41c.08-.15.14-.32.18-.49-.07.11-.16.2-.29.26-.12.07-.26.12-.41.17-.15.04-.31.07-.47.09-.16.02-.32.02-.46.02-.47,0-.91-.08-1.32-.24-.41-.16-.77-.39-1.08-.69-.31-.3-.55-.67-.73-1.1-.18-.44-.27-.93-.27-1.47,0-.5.09-.97.27-1.4.18-.43.42-.8.73-1.12.31-.31.67-.56,1.08-.74.41-.18.85-.27,1.32-.27.22,0,.43.03.64.08.21.05.42.13.62.22.2.1.39.21.57.34.18.13.35.27.51.42l.66-.79h.41v5.81Zm-1.71-2.55c0-.23-.04-.46-.13-.67-.09-.22-.21-.41-.36-.58s-.33-.3-.54-.4c-.21-.1-.42-.15-.66-.15s-.45.04-.66.12c-.21.08-.38.2-.53.35s-.27.34-.36.57c-.09.23-.13.48-.13.77s.04.53.13.75c.09.22.21.41.36.57s.33.28.53.36c.21.08.42.13.66.13s.45-.05.66-.15c.21-.1.38-.24.54-.4s.28-.36.36-.58.13-.44.13-.67Z" fill="#f48484"/></g></svg>