<svg xmlns="http://www.w3.org/2000/svg" viewBox="0 0 900 900" width="900" height="900"><g transform="translate(48.0 51.0) rotate(0.0 404.5 387.5) scale(1.0009514606591432 1.002171155315839)"><svg width="808.231" height="773.321" viewBox="0 0 808.231 773.321"><path d="M789.985 251.518c-8.44-15.04-24.31-25.05-44.68-28.18-27.02-4.14-59.87 3.47-92.56 20.34-12.09 6.23-24.15 13.74-35.89 22.38a283.21 283.21 0 0 0-13.82 10.81c-4.58 3.81-9.09 7.8-13.51 11.95-7.04 6.62-7.38 17.69-.76 24.73 2.82 3.01 6.45 4.79 10.24 5.34 5.09.73 10.45-.77 14.49-4.57 7.67-7.21 15.4-13.67 23.09-19.41h.01c40.31-30.13 79.5-40.64 103.4-36.97 6.72 1.03 15.55 3.73 19.48 10.71 8.65 15.4-15.5 33.34-25.78 40.59q-.01.01-.02.01c-.74.52-1.4.99-1.98 1.39-34.74 24.38-39.33 58.67-39.29 60.96.2 9.29 7.61 16.75 16.77 17.12.36.01.73.02 1.09.01 6.65-.14 14.46-4.41 16.91-13.66.27-1.05.46-2.04.66-3.09.74-3.97 2.16-11.54 8.88-19.8v-.01c3.23-3.97 7.68-8.1 13.87-12.06 41.05-26.3 55.78-59.42 39.4-88.59z" fill="#ffae5d"/><path d="M733.695 309.238c10.28-7.25 34.43-25.19 25.78-40.59-3.93-6.98-12.76-9.68-19.48-10.71-28.46-4.37-78.61 11.37-126.5 56.38-4.04 3.8-9.4 5.3-14.49 4.57-2.01-13.7 1.44-31.48 4.03-42.02 2.65-2.21 6.16 14.25 8.86 12.16 4.256 16.452 47.562-24.647 80.953-33.456 26.149-6.899 67.11-13.315 73.761 9.316 6.219 21.162-25.513 42.06-32.913 44.35z" fill="#e48860"/><path d="M630.374 299.697c-7.69 5.74-9.209 7.411-16.879 14.621-4.04 3.8-9.4 5.3-14.49 4.57-3.79-.55-7.42-2.33-10.24-5.34-6.62-7.04-6.28-18.11.76-24.73 4.42-4.15 8.93-8.14 13.51-11.95 2.65-2.21 5.33-4.36 8.03-6.45 1.92-1.48 23.58-16.221 25.52-17.642-28.846 23.926-20.434 46.23-6.211 46.921z" fill="#670a39"/><path d="M601.535 320.069c-.886 0-1.778-.063-2.671-.191-4.194-.609-7.937-2.561-10.828-5.646-6.985-7.428-6.625-19.156.805-26.142a302.366 302.366 0 0 1 13.556-11.99 286.414 286.414 0 0 1 8.057-6.472c1.127-.869 8.725-6.082 15.429-10.682 4.783-3.282 9.3-6.381 10.113-6.976a1 1 0 0 1 1.229 1.577c-21.913 18.176-19.353 32.368-18.047 36.285 1.74 5.217 6.05 8.615 11.246 8.867a1 1 0 0 1 .55 1.8c-6.614 4.937-8.628 6.84-14.011 11.926l-2.781 2.623a18.395 18.395 0 0 1-12.646 5.023zm25.559-59.53-.08.055c-6.351 4.358-14.256 9.781-15.338 10.615a284.89 284.89 0 0 0-8 6.426 300.803 300.803 0 0 0-13.466 11.911c-6.625 6.23-6.947 16.69-.716 23.316a16.303 16.303 0 0 0 9.655 5.035c5.006.718 9.987-.852 13.661-4.309l2.778-2.619c4.88-4.611 7.023-6.635 12.246-10.612-4.9-1.105-8.83-4.727-10.554-9.894-2.941-8.818.692-19.539 9.814-29.925z" fill="#670a39"/><path d="M750.585 340.108c-6.19 3.96-10.64 8.09-13.87 12.06 1.36-12.18 42.154-28.248 52.59-63.14 6.812-22.775-1.433-41.176-26.883-54.782-28.422-15.196-84.247-.198-109.687 9.582 0 0 0-.05.01-.15 32.69-16.87 65.54-24.48 92.56-20.34 20.37 3.13 36.24 13.14 44.68 28.18 16.38 29.17 1.65 62.29-39.4 88.59z" fill="#ffdf68"/><path d="M709.894 389.731c-.253 0-.505-.005-.756-.015-9.738-.395-17.526-8.345-17.728-18.1-.007-.334 2.95-35.996 39.715-61.795l.554-.388c8.794-6.161 35.557-24.91 26.921-40.29-3.728-6.638-12.26-9.221-18.761-10.219-28.217-4.333-78.013 11.34-125.656 56.123a18.375 18.375 0 0 1-13.243 5.011 18.378 18.378 0 0 1-12.907-5.821 18.378 18.378 0 0 1-5.012-13.242 18.38 18.38 0 0 1 5.821-12.908c49.875-46.88 111.349-72.682 156.613-65.735 20.682 3.176 36.807 13.36 45.406 28.676 16.667 29.683 1.81 63.3-39.741 89.924-18.714 11.99-21.231 25.46-22.306 31.212-.19 1.017-.386 2.069-.677 3.164-2.584 9.745-10.826 14.254-17.848 14.4-.132.003-.264.004-.396.004zm20.374-133.494c3.52 0 6.82.24 9.874.709 6.941 1.066 16.08 3.877 20.202 11.218 9.522 16.959-18.357 36.49-27.518 42.907l-.553.388c-35.347 24.805-38.871 59.793-38.864 60.116.181 8.7 7.125 15.791 15.81 16.143.341.014.684.017 1.028.01 6.273-.13 13.64-4.174 15.957-12.913.271-1.022.452-1.992.644-3.018 1.123-6.006 3.752-20.072 23.193-32.529 40.557-25.987 55.164-58.607 39.076-87.261-8.291-14.768-23.906-24.598-43.966-27.678-44.679-6.858-105.496 18.741-154.939 65.215-3.211 3.019-5.055 7.107-5.191 11.512s1.451 8.6 4.47 11.811a16.395 16.395 0 0 0 11.511 5.192c4.405.138 8.6-1.451 11.811-4.469 43.009-40.428 87.91-57.352 117.455-57.352z" fill="#670a39"/><path d="M705.565 357.702c-16.857-.029-63.196 12.186-56.419 82.401 5.778 59.874 56.811 64.73 70.415 49.398 17.308 7.617 33.802.901 40.429-13.707 11.772.653 36.834-.739 38.847-26.505 2.207-28.246-14.619-45.805-29.887-41.862-7.232-31.531-35.535-49.679-63.384-49.726z" fill="#ffae5d"/><path d="M771.826 429.47c6.261 11.43 11.602 15.549 13.174 24.362 1.283 7.197-.13 15.783-4.337 19.757 33.293-16.203 13.728-57.713 4.566-62.299-9.899-4.955-17.486-6.361-16.273-.978 1.492 6.621 1.119 16.993 2.87 19.158z" fill="#e48860"/><path d="M770.233 441.9a1 1 0 0 1-.998-1.085c4.322-50.998-20.45-74.18-45.073-78.87a1 1 0 0 1 .374-1.964c14.548 2.771 27.121 11.379 35.402 24.238 9.308 14.453 13.212 34.082 11.289 56.766a1 1 0 0 1-.995.916z" fill="#670a39"/><path d="M670.935 382.55c25.63-18.867 54.465-7.728 72.196 8.022 15.848 14.077 19.415 33.68 19.565 44.022.196 13.5 9.335 16.729 14.163 21.651 6.142 6.261 1.85 12.962-8.684 13.958-14.478 1.37-31.5-7.043-37.806-20.176 1.414 9.937 19.806 27.024 11.784 33.872-10.531 8.99-32.785-.849-42.643-9.457 13.621 16.1-9.164 23.407-22.314 16.103s-25.987-29.707-27.391-52.232c-1.33-21.326 6.958-45.328 21.13-55.761z" fill="#ffdf68"/><path d="M768.864 476.795c-.511 0-1.024-.011-1.542-.033-16.468-.702-31.34-11.96-39.784-30.115a1 1 0 1 1 1.813-.843c8.123 17.464 22.349 28.29 38.056 28.96 11.343.482 21.266-4.714 26.536-13.904 6.501-11.338 5.71-29.334-1.8-40.97-3.796-5.881-10.884-12.645-23.099-11.466a1 1 0 0 1-.192-1.99c10.31-.993 19.179 3.399 24.971 12.373 7.88 12.209 8.695 31.119 1.855 43.049-5.407 9.43-15.354 14.941-26.814 14.941z" fill="#670a39"/><path d="M736.096 493.636c-.698 0-1.407-.023-2.124-.07-19.303-1.254-41.338-18.919-46.229-37.063a1 1 0 0 1 1.931-.521c4.612 17.109 26.204 34.403 44.428 35.587 8.115.529 19.031-1.849 24.964-16.159a1.001 1.001 0 0 1 1.848.766c-4.695 11.322-13.458 17.458-24.817 17.458z" fill="#670a39"/><path d="M697.531 498.286c-5.369 0-10.785-1.261-16.082-3.804-19.642-9.427-32.943-33.823-33.888-62.151-1.801-54.029 26.276-68.549 47.551-74.771a.999.999 0 1 1 .561 1.919c-22.381 6.545-47.849 20.734-46.114 72.785.92 27.592 13.777 51.306 32.754 60.415 12.31 5.908 25.325 4.496 36.648-3.978a1 1 0 1 1 1.198 1.601c-7.086 5.303-14.806 7.983-22.629 7.984zm79.327-60.044a1 1 0 0 1-.961-.726c-.16-.561-1.684-5.561-5.778-8.354a1 1 0 1 1 1.128-1.653c4.577 3.123 6.279 8.425 6.574 9.457a1 1 0 0 1-.962 1.275zm27.576-148.174a1 1 0 0 1-.925-1.379c6.141-15.018 2.169-39.202-15.108-53.677a1 1 0 0 1 1.285-1.534c17.978 15.062 22.088 40.284 15.675 55.967a1 1 0 0 1-.926.622z" fill="#670a39"/><path d="m797.332 744.354-1.7 4.67c-1.84 5.69-11.56 12.73-19.22 16.74-.18.05-7.81 2.35-17.34 4.85h-.01c-52.19 9.04-156.28-19.65-153.97-88.49.21-6.43 5.33-17.07 9.56-19.85l-3.16-6.4c-1.43-2.98-3.49-6-5.12-9.46-15.52-32.84-38.52-82.5-65.14-149.51-1.5-3.76-3.02-7.9-4.56-12.22-4.16-11.62-8.44-24.62-12.56-35.54-3.96-10.48-6.92-22.16-10.89-33.1-3.3-9.08 1.4-19.12 10.48-22.42 9.08-3.29 19.12 1.4 22.42 10.48 5.68 15.66 10.5 31.92 16.14 46.59.33.87 1.53 4.29 1.87 5.15 29 75.33 46.396 120.946 71.39 169.34 2.034 3.939 3.65 7.77 5.31 11.26 1.68 3.52 6.03 11.17 7.43 14.05l-.23-3.86 1.81 2.07c.12-.01.23-.02.35-.02 48.4-3.62 117.249 30.183 139.43 64.05a61.982 61.982 0 0 1 6.91 14.21c0 .01.01.01.01.02 2.19 6.42 2.52 12.09.79 17.39z" fill="#ffdf68"/><path d="M643.673 641.941c-24.716-33.413-63.638-116.738-74.281-141.287-14.87-34.3-33.653-34.3-32.72-15.97-4.16-11.62-8.44-24.62-12.56-35.54-3.96-10.48-6.92-22.16-10.89-33.1-3.3-9.08 1.4-19.12 10.48-22.42 9.08-3.29 19.12 1.4 22.42 10.48 5.68 15.66 10.5 31.92 16.14 46.59.33.87 1.53 4.29 1.87 5.15 29 75.33 48.744 128.619 79.541 186.097zm152.859 85.003c-21.315-36.242-112.293-74.59-141.532-65.938l-4.808-12.322c48.4-3.62 116.48 25.88 139.43 64.05 3.11 5.17 5.44 9.87 6.91 14.21z" fill="#ffae5d"/><path d="M621.588 673.537a1 1 0 0 1-.833-.445c-15.835-23.751-65.137-121.374-108.485-256.739-3.159-9.866 1.713-20.261 11.092-23.665a18.827 18.827 0 0 1 14.541.743c4.397 2.127 7.653 5.807 9.169 10.362 50.29 151.082 103.434 252.406 108.547 256.428a1 1 0 0 1-1.236 1.572c-5.19-4.082-58.795-105.915-109.209-257.368-1.344-4.038-4.236-7.303-8.143-9.193a16.815 16.815 0 0 0-12.987-.663c-8.365 3.035-12.7 12.337-9.869 21.175 43.284 135.166 92.458 232.561 108.245 256.24a1.001 1.001 0 0 1-.831 1.555z" fill="#670a39"/><path d="M737.64 773.348c-32.915 0-71.462-10.732-98.591-29.38-23.446-16.115-35.556-35.969-35.023-57.415.295-11.869 3.668-20.305 10.023-25.076a1.001 1.001 0 0 1 1.201 1.599c-5.842 4.385-8.945 12.3-9.224 23.526-.652 26.198 18.214 44.76 34.156 55.717 38.715 26.612 100.888 36.939 135.781 22.557a2.23 2.23 0 0 1 .072-.031v-.002c3.586-1.486 8.751-4.13 12.989-8.283.116-.113.197-.193.27-.254 9.096-9.005 13.208-25.72-2.487-45.686-31.723-40.361-82.998-63.529-137.169-61.984-.234.01-.8-.011-1.393-.034-.544-.021-1.29-.05-1.513-.036a1 1 0 1 1-.13-1.995c.305-.02.88 0 1.722.033.527.021 1.03.041 1.247.034 54.809-1.567 106.695 21.89 138.809 62.747 16.553 21.056 11.571 39.227 2.276 48.389a1.245 1.245 0 0 1-.087.076l-.144.14c-4.461 4.373-9.862 7.143-13.611 8.697a.963.963 0 0 1-.066.03c-10.915 4.503-24.453 6.63-39.106 6.631zM563.261 453.572c-9.783-10.043-37.565-18.652-35.953 4.679-3.96-10.48-10.115-31.267-14.085-42.207-3.3-9.08 1.4-19.12 10.48-22.42 9.08-3.29 19.12 1.4 22.42 10.48 5.68 15.66 10.499 32.207 16.139 46.877.33.87.66 1.73 1 2.59z" fill="#670a39"/><path d="M527.307 459.251a1 1 0 0 1-.935-.647c-2.119-5.609-4.883-14.213-7.555-22.534-2.41-7.505-4.687-14.593-6.535-19.686-3.483-9.583 1.487-20.215 11.078-23.701 9.587-3.472 20.219 1.496 23.701 11.078 2.531 6.979 4.918 14.212 7.226 21.207 2.974 9.015 5.784 17.531 8.907 25.653.33.87.658 1.726.997 2.581a1 1 0 0 1-1.647 1.065c-6.645-6.822-20.873-12.289-28.575-8.843-4.213 1.885-6.119 6.176-5.664 12.755a1 1 0 0 1-.998 1.069zm2.341-65.675a16.43 16.43 0 0 0-5.605.988c-8.554 3.109-12.987 12.592-9.881 21.138 1.861 5.128 4.143 12.234 6.559 19.757 1.974 6.145 3.997 12.445 5.767 17.559.878-5.584 3.935-8.197 6.664-9.417 7.992-3.575 20.384 1.043 27.734 6.583-2.975-7.848-5.78-16.352-8.498-24.588-2.303-6.981-4.685-14.2-7.206-21.151-2.434-6.697-8.786-10.869-15.534-10.869zM655 661.006c-1.087-8.452 8.592-12.997 21.076-12.089-15.906-1.085-27.134-.105-27.134-.105L655 661.005z" fill="#670a39"/><path d="M655 662.007c-.371 0-.723-.208-.896-.555l-6.058-12.193a1.002 1.002 0 0 1 .808-1.441c.112-.01 11.246-.954 26.782.069.17.01.341.022.511.034.55.04.964.518.925 1.068s-.519.958-1.066.927l-.51-.034c-7.766-.477-14.269 1.234-17.46 4.606-1.676 1.771-2.365 3.921-2.047 6.391a1 1 0 0 1-.992 1.128zm-4.498-12.3 3.741 7.529c.407-1.517 1.193-2.908 2.343-4.123 1.476-1.56 3.543-2.807 6.045-3.698-5.739-.039-10.015.162-12.129.292zm153.497 69.936a1 1 0 0 1-.932-.638c-6.151-15.823-16.088-27.95-32.218-39.32a1.001 1.001 0 0 1 1.153-1.635c16.471 11.611 26.627 24.019 32.93 40.23a1 1 0 0 1-.932 1.362z" fill="#670a39"/><path d="M621.044 698.756c.246-20.998 19.579-18.78 39.913-.662 23.063 20.55 61.826 30.565 92.348 31.739s36.391 20.218 21.522 28.304-65.88 9.652-98.75-4.435-55.258-35.773-55.033-54.947z" fill="#ffed8d"/><path d="M506.352 709.484c-2.998 22.454-19.61 46.52-102.85 48.47-16.28.38-30.21-.09-42-1.31h-.02c-37.06-3.82-52.99-15.01-54.5-30.1-.39-3.73.12-7.71 1.41-11.87.31-1 .72-2.01 1.21-3.02 9.72-19.86 54.11-40.79 97.12-50.72 7.45-1.72 14.85-3.11 22.03-4.11l.08.12c-18.57-32.2-26.62-68.79-23.37-106.98.53-6.22 1.35-12.48 2.46-18.78 2.32-13.19 5.9-26.53 10.75-39.99 10.92-30.39 28.23-61.41 51.8-92.75 5.81-7.73 16.78-9.28 24.51-3.47 7.72 5.81 9.27 16.78 3.47 24.5-1.64 2.18-3.25 4.36-4.81 6.54-16.52 22.91-29.07 45.49-37.68 67.57-21.46 54.91-18.65 106.77 7.64 153.13 16.96 29.9 46.622 33.771 42.75 62.77z" fill="#ffdf68"/><path d="M506.352 709.484c-2.915 22.465-19.61 46.52-102.85 48.47-67.49 1.59-94.53-11.52-96.52-31.41 29.974 34.984 147.626 17.873 165.887-11.867 14.365-23.395-28.696-55.099-42.261-107.976-12.065-47.028 9.913-92.259-11.937-115.508 10.92-30.39 28.23-61.41 51.8-92.75 5.81-7.73 16.78-9.28 24.51-3.47 7.72 5.81 9.27 16.78 3.47 24.5-61.86 82.28-72.73 160.47-34.85 227.24 16.96 29.9 46.361 34.945 42.75 62.77z" fill="#ffae5d"/><path d="M383.242 729.759c-38.702 6.593-68.589-4.622-73.639-18.105 14.833-26.43 46.931-36.761 80.706-47.061 0 0 31.17-2.065 41.344 11.788 15.777 21.482.111 45.112-48.411 53.377z" fill="#ffed8d"/><path d="M505.961 709.484c-2.875 22.47-19.61 46.52-102.85 48.47-16.28.38-30.21-.09-42-1.31 29.12-1.4 63.98-3.63 81.5-6.07 30.91-4.31 54.215-17.611 57.345-41.611s-23.666-32.581-37.915-54.259c-19.913-30.294-29.341-58.122-24.87-107.48 4.525-49.956 36.87-101.74 55.86-122.14l.22.93c-57.59 79.88-66.91 155.7-30.04 220.7 16.96 29.9 46.361 34.554 42.75 62.77z" fill="#ffdf68"/><path d="M498.452 419.474c-1.64 2.18-3.25 4.36-4.81 6.54-16.52 22.91-29.07 45.49-37.68 67.57-15.67-3.23-38.397 19.074-48.04 37.6 2.32-13.19 5.9-26.53 10.75-39.99 10.92-30.39 28.23-61.41 51.8-92.75 5.81-7.73 16.78-9.28 24.51-3.47 7.72 5.81 9.27 16.78 3.47 24.5z" fill="#670a39"/><path d="M407.922 532.185a1 1 0 0 1-.985-1.173c2.326-13.223 5.957-26.733 10.794-40.156 10.934-30.428 28.41-61.723 51.942-93.012a18.377 18.377 0 0 1 12.194-7.202 18.393 18.393 0 0 1 13.716 3.533c8.147 6.131 9.792 17.75 3.669 25.9a345.592 345.592 0 0 0-4.796 6.521c-16.326 22.642-28.963 45.301-37.562 67.351a1 1 0 0 1-1.134.616c-15.469-3.186-37.772 19.449-46.951 37.082a1.003 1.003 0 0 1-.887.539zm76.571-139.729c-.778 0-1.562.055-2.346.166a16.39 16.39 0 0 0-10.876 6.423c-23.412 31.129-40.792 62.247-51.658 92.487-4.093 11.358-7.315 22.776-9.605 34.024 10.553-16.8 30.532-35.313 45.322-33.1 8.652-21.966 21.267-44.513 37.501-67.027a343.843 343.843 0 0 1 4.822-6.556c5.462-7.27 3.994-17.632-3.272-23.1a16.395 16.395 0 0 0-9.888-3.317z" fill="#670a39"/><path d="M390.749 759.14c-43.217 0-69.364-6.577-79.787-20.024-5.114-6.598-6.303-14.912-3.532-24.71 7.987-28.247 66.006-50.635 119.723-58.364-18.096-32.035-25.908-68.315-22.684-106.159 4.164-48.879 26.103-100.033 65.207-152.042 6.131-8.152 17.752-9.798 25.904-3.668 3.95 2.97 6.507 7.3 7.2 12.193s-.561 9.762-3.531 13.712c-60.803 80.866-72.829 159.064-34.777 226.14 6.812 12.008 15.716 19.901 23.571 26.865 11.528 10.22 21.483 19.046 19.306 36.525-1.751 14.06-9.149 24.755-22.617 32.695-17.294 10.196-45.202 15.816-82.948 16.703a470.88 470.88 0 0 1-11.033.134zm37.472-101.23c-53.294 7.531-111.074 29.477-118.868 57.04-2.625 9.283-1.582 16.787 3.189 22.941 10.715 13.824 40.725 20.256 89.193 19.116 37.401-.879 64.983-6.406 81.98-16.426 12.898-7.604 19.979-17.816 21.649-31.219 2.047-16.435-7.086-24.531-18.649-34.782-7.972-7.068-17.008-15.078-23.984-27.375-38.475-67.822-26.401-146.776 34.918-228.329a16.39 16.39 0 0 0 3.149-12.229 16.394 16.394 0 0 0-6.422-10.875c-7.271-5.467-17.636-4-23.104 3.272-38.875 51.703-60.681 102.51-64.813 151.01-3.23 37.926 4.741 74.262 23.143 106.25l.027.047a185.794 185.794 0 0 0 11.466 17.533.999.999 0 1 1-1.61 1.186 187.712 187.712 0 0 1-11.266-17.161z" fill="#670a39"/><path d="M440.292 674.477c-7.845-7.84-17.835-13.319-28.814-14.596 12.189-2.289 17.274-3.057 17.274-3.057z" fill="#670a39"/><path d="M440.292 675.477a.998.998 0 0 1-.707-.293c-8.169-8.164-17.928-13.112-28.222-14.31a1 1 0 0 1-.069-1.976c12.067-2.266 17.258-3.055 17.309-3.063a1 1 0 0 1 .986.442l11.54 17.653a1 1 0 0 1-.836 1.547zm-23.248-15.611c6.508 1.587 12.722 4.629 18.383 8.996l-7.158-10.95c-1.358.217-4.947.808-11.225 1.954zm-17.696-49.164a1 1 0 0 1-.952-.696c-5.806-18.15-7.144-36.746-3.672-51.019a1 1 0 0 1 1.943.473c-3.388 13.927-2.064 32.128 3.633 49.937a1 1 0 0 1-.953 1.305z" fill="#670a39"/><path d="M351.915 338.258c-1.9 12.57-4.53 24.59-7.85 36-16.05 55.08-48.19 95.85-91.16 114.33-16.38 7.04-33.53 10.53-50.98 10.53-30.44 0-61.83-10.61-91.76-31.49-7.93-5.52-9.87-16.43-4.35-24.36 5.53-7.93 16.44-9.87 24.37-4.35 12.91 9.01 26.06 15.62 39.12 19.78h.01c24.17 7.71 48.07 7.06 69.77-2.27 31.68-13.62 56.03-44.11 69.54-85.95 1.5-4.63 2.86-9.4 4.08-14.3 1.86-7.42 3.4-15.14 4.6-23.14 1.44-9.56 10.36-16.14 19.92-14.7 9.55 1.44 16.13 10.36 14.69 19.92z" fill="#ffae5d"/><path d="M201.925 500.118c-30.705 0-62.633-10.951-92.332-31.67-8.366-5.823-10.429-17.375-4.599-25.751 5.833-8.365 17.389-10.428 25.762-4.6 12.7 8.864 25.751 15.467 38.791 19.629.024.006.048.012.072.02 23.987 7.651 47.872 6.878 69.071-2.236 31.022-13.337 55.52-43.644 68.983-85.339a215.087 215.087 0 0 0 4.061-14.234 244.126 244.126 0 0 0 4.581-23.047 18.377 18.377 0 0 1 7.31-12.131 18.385 18.385 0 0 1 13.748-3.409c10.083 1.52 17.05 10.967 15.53 21.058-1.89 12.503-4.541 24.659-7.879 36.13-16.224 55.678-48.8 96.509-91.725 114.969-16.383 7.041-33.668 10.611-51.375 10.611zM120.2 436.783c-5.221 0-10.361 2.462-13.565 7.057-5.2 7.47-3.36 17.773 4.101 22.967 29.362 20.484 60.895 31.311 91.189 31.311 17.434 0 34.454-3.515 50.585-10.449 42.367-18.22 74.541-58.597 90.595-113.691 3.313-11.386 5.945-23.455 7.821-35.87 1.356-9-4.857-17.426-13.85-18.782a16.403 16.403 0 0 0-12.262 3.041 16.393 16.393 0 0 0-6.52 10.819c-1.192 7.943-2.745 15.761-4.619 23.234a217.045 217.045 0 0 1-4.099 14.365c-13.643 42.251-38.537 72.992-70.096 86.561-21.63 9.3-45.975 10.103-70.407 2.323a1.47 1.47 0 0 1-.071-.019c-13.252-4.221-26.505-10.921-39.389-19.913a16.424 16.424 0 0 0-9.413-2.955z" fill="#670a39"/><path d="m143.625 446.098-17.26 21.7c-13.61 14.96-39.35 22.23-63.16 15.62-.81-.22-1.62-.46-2.43-.72-3.51.98-7.67.6-12.53-.41-27.02-5.63-36.37-17.25-39.13-26.96-.68-2.36-.96-4.6-1.02-6.62-.09-2.89.48-7.68 4.72-10.2.7-.42 1.51-.78 2.44-1.05-4.8-4.42-8.21-10.1-9.56-15.79v-.01c-2.08-8.66.62-17.31 10.48-21.39 1.22-.51 2.56-.95 4.02-1.31-1.94-3.06-2.93-7.5-2.99-12.05-.07-4.36.71-8.83 2.31-12.3 2.84-6.17 8.26-10.23 14.91-12.52 16.82-5.8 41.51-.32 52.17 10.67-16.77-49.97 41.4-73.77 56.82-59.16 8.32 7.88.54 19.47-6.23 26.51-15.85 16.48-6.69 31.93.82 41.12 14.37 17.61 15.69 46.26 5.62 64.87z" fill="#ffdf68"/><path d="m143.625 446.098-17.26 21.7c-13.61 14.96-39.35 22.23-63.16 15.62 1.85-.94 3.8-2.24 5.58-4.02 5.74-5.74 5.071-10.599 4.095-12.847-4.355-10.028-10.105-9.263-10.105-9.263s23.089-1.348 23.609-13.878c.53-12.52-22.099-20.662-22.099-20.662s18.522 1.238 22.31-11.74c5.926-20.306-25.01-27.69-25.79-28.14 16.793-1.1 29.392 6.614 36.869 2.617 14.152-7.565 9.717-27.652 21.962-39.717 12.429-12.247 26.103-19.761 23.779-32.17 8.32 7.88.54 19.47-6.23 26.51-15.85 16.48-6.69 31.93.82 41.12 14.37 17.61 15.69 46.26 5.62 64.87z" fill="#ffae5d"/><path d="M320.522 381.181c-.593 7.682-9.652 45.783-47.348 73.174-41.883 30.434-69.518 26.67-95.348 21.13-20.03-4.3-22.043-18.21-8.521-16.787h.01c24.17 7.71 48.07 7.06 69.77-2.27 31.68-13.62 56.03-44.11 69.54-85.95 7.56-2.02 12.296 5.522 11.896 10.703z" fill="#ffdf68"/><path d="M351.915 338.258c-1.9 12.57-4.53 24.59-7.85 36-1.799-17.534-23.505-28.059-31.36-18.08 1.86-7.42 3.4-15.14 4.6-23.14 1.44-9.56 10.36-16.14 19.92-14.7 9.55 1.44 16.13 10.36 14.69 19.92z" fill="#670a39"/><path d="M344.066 375.258a.998.998 0 0 1-.995-.898c-1.067-10.401-9.454-18.114-17.188-20.357-5.274-1.531-9.79-.511-12.391 2.793a.999.999 0 0 1-1.755-.862 244.02 244.02 0 0 0 4.581-23.045 18.377 18.377 0 0 1 7.31-12.131 18.386 18.386 0 0 1 13.748-3.409c10.083 1.52 17.05 10.967 15.53 21.058-1.89 12.503-4.541 24.659-7.879 36.13a1 1 0 0 1-.96.721zm-22.792-23.956c1.628 0 3.362.257 5.166.781 7.301 2.117 15.139 8.741 17.8 17.875 2.784-10.192 5.03-20.885 6.687-31.849 1.356-9-4.857-17.426-13.85-18.782a16.403 16.403 0 0 0-12.262 3.041 16.393 16.393 0 0 0-6.52 10.819 248.667 248.667 0 0 1-3.84 20.03c1.912-1.266 4.233-1.916 6.819-1.916z" fill="#670a39"/><path d="M201.925 500.116c-27.745 0-55.608-8.546-82.815-25.4a1 1 0 0 1 1.054-1.7c26.886 16.656 54.395 25.101 81.762 25.101 17.438 0 34.458-3.516 50.587-10.451 51.545-22.161 87.415-76.674 98.412-149.559a16.393 16.393 0 0 0-3.037-12.258 16.39 16.39 0 0 0-10.815-6.519 16.385 16.385 0 0 0-12.258 3.037 16.393 16.393 0 0 0-6.519 10.817c-9.258 61.354-37.985 106.61-78.816 124.166-29.622 12.736-64.149 9.331-97.221-9.586a1 1 0 1 1 .994-1.736c32.984 18.867 65.986 22.147 95.437 9.485 40.182-17.276 68.477-61.972 77.629-122.626a18.38 18.38 0 0 1 7.309-12.127 18.377 18.377 0 0 1 13.744-3.406 18.374 18.374 0 0 1 12.126 7.31 18.379 18.379 0 0 1 3.406 13.743c-11.102 73.584-47.405 128.657-99.6 151.098-16.38 7.042-33.666 10.614-51.377 10.614z" fill="#670a39"/><path d="M18.044 392.528c12.13 16.1 55.658 33.455 69.431 16.1C83 420.31 73.701 425.983 52.818 420.31s-27.883-14.843-30.253-18.098-5.352-10.786-4.522-9.684z" fill="#ffae5d"/><path d="M34.087 400.367c-8.53-4.07-13.542-8.479-16.882-13.459-.07-4.36.71-8.83 2.31-12.3 2.84-6.17 8.26-10.23 14.91-12.52-3.484 1.422-.54 9.768 1.608 12.117 5.189 5.672 14.874 10.385 19.184 17.345 4.3 6.95-3.91 17.017-21.13 8.817zm-3.522 37.703c-10.26-1.19-19.33-8.003-24.87-16.403v-.01c-2.08-8.66.62-17.31 10.48-21.39 1.026 7.206 12.369 16.892 18.499 21.392 8.61 6.33 9.391 17.971-4.109 16.411zm.98 28.028c-7.35 1.56-18.84-4.225-22.43-10.77-.68-2.36-.96-4.6-1.02-6.62-.09-2.89.48-7.68 4.72-10.2 0 0 2.44 4.694 12.528 11.639 8.433 5.806 15.392 13.991 6.202 15.951z" fill="#ffed8d"/><path d="M7.283 426.963c10.619 13.894 64.019 36.015 79.246 15.234 0 13.135-19.667 19.237-42.804 11.98S10.61 435.376 7.283 426.963zm3.843 33.391c10.125 10.865 52.7 28.043 62.189 7.554 0 15.215-15.728 17.675-32.956 12.43s-25.585-13.593-29.233-19.984z" fill="#ffae5d"/><path d="M81.227 486.823c-6.904 0-13.854-.998-20.478-3.08-3.244.837-7.072.691-12.707-.476-35.003-7.297-40.677-24.768-40.944-34.533-.101-3.374.637-9.128 6.317-11.663-7.348-7.422-10.862-17.53-8.784-25.599 1.168-4.537 4.568-10.403 14.055-13.143-3.25-6.35-3.354-17.015-.081-24.144 3.563-7.758 11.188-12.843 22.053-14.705 15.134-2.594 33.545 1.795 43.93 10.118-5.856-21.539 1.585-41.231 20.323-53.191 14.381-9.179 31.594-10.734 39.187-3.541 2.522 2.389 3.84 5.268 3.917 8.555.176 7.531-6.256 15.372-10.106 19.375-11.505 11.965-11.222 24.982.865 39.795 13.967 17.116 16.483 46.097 5.729 65.98a1 1 0 1 1-1.759-.951c10.397-19.221 7.972-47.23-5.519-63.763-12.841-15.737-13.089-29.621-.758-42.446 3.634-3.779 9.707-11.136 9.548-17.943-.064-2.735-1.172-5.141-3.292-7.15-6.841-6.481-23.321-4.788-36.735 3.775-18.918 12.075-25.813 32.392-18.445 54.349a.999.999 0 0 1-1.666 1.014c-9.182-9.471-28.895-14.745-44.879-12.005-7.102 1.217-16.436 4.559-20.573 13.568-3.182 6.929-2.894 17.867.617 23.406a1.002 1.002 0 0 1-.606 1.507c-7.518 1.845-12.313 6.008-13.866 12.038-2.006 7.791 1.757 17.737 9.365 24.752a1 1 0 0 1-.393 1.694c-5.53 1.645-6.556 6.488-6.443 10.261.251 9.177 5.697 25.616 39.351 32.632 5.398 1.118 9.116 1.25 12.054.429a.998.998 0 0 1 .573.01c23.016 7.353 50.163 1.201 64.551-14.626a1 1 0 1 1 1.48 1.346c-10.679 11.747-28.12 18.354-45.881 18.355z" fill="#670a39"/><path d="M68.876 423.732c-2.208 0-4.621-.203-7.257-.602-19.154-2.896-34.161-11.283-42.257-23.614a1 1 0 1 1 1.672-1.098c7.781 11.85 22.3 19.924 40.885 22.734 13.249 2.004 20.128-1.04 23.743-10.505 2.652-6.943-1.038-17.129-15.405-23.087-1.463-.607-3.062-1.2-4.755-1.828-6.167-2.287-13.843-5.133-20.073-10.788a1 1 0 1 1 1.344-1.481c5.944 5.395 13.106 8.051 19.425 10.394 1.711.635 3.328 1.234 4.826 1.855 15.601 6.47 19.493 17.831 16.507 25.648-3.233 8.465-8.972 12.37-18.653 12.371z" fill="#670a39"/><path d="M64.212 458.316c-1.265 0-2.524-.055-3.767-.161-24.6-2.089-37.445-11.776-45.887-19.981a1 1 0 1 1 1.394-1.434c8.204 7.974 20.694 17.387 44.663 19.423 5.169.438 22.232.803 24.786-12.935.47-2.527-.363-5.459-2.346-8.257-4.328-6.106-13.192-10.597-24.32-12.323a1 1 0 0 1 .306-1.976c11.659 1.808 21.007 6.598 25.646 13.143 2.298 3.243 3.25 6.716 2.681 9.779-2.028 10.91-12.695 14.723-23.155 14.723z" fill="#670a39"/><path d="M55.931 484.131c-2.473 0-5.114-.285-7.884-.862a1 1 0 1 1 .408-1.958c8.176 1.703 15.35.664 19.682-2.852 2.727-2.213 4.172-5.241 4.179-8.756.008-4.199-2.588-8.426-7.122-11.599a1 1 0 1 1 1.147-1.639c5.078 3.553 7.985 8.379 7.975 13.241-.008 4.077-1.754 7.737-4.918 10.305-3.355 2.723-7.996 4.119-13.466 4.119zm39.066-180.102a.995.995 0 0 1-.668-.257l-22.922-20.619a1 1 0 1 1 1.337-1.487l22.922 20.619a1 1 0 0 1-.669 1.743zm16.257-9.108c-.432 0-.83-.282-.959-.717l-10.981-37.172a1 1 0 1 1 1.918-.566l10.981 37.172a1 1 0 0 1-.96 1.283zm17.876-.064a1 1 0 0 1-.992-1.129c1.24-9.504 3.599-27.634 3.657-28.219a1.01 1.01 0 0 1 1.067-.906c.54.039.952.493.929 1.034-.012.283-2.304 17.884-3.669 28.35a1 1 0 0 1-.99.871zM104.168 439.07a1 1 0 0 1-.613-.21c-5.795-4.505-13.888-21.796-8.69-38.786a1.001 1.001 0 0 1 1.913.585c-5.203 17.007 3.732 33.3 8.005 36.622a1 1 0 0 1-.614 1.789z" fill="#670a39"/><path d="M94.662 346.205c4.471 4.741 12.24-.54 19.505-7.774 6.968-6.938 22.406-13.438 16.222-19.49-6.338-6.202-22.37.05-28.824 7.059-6.454 7.008-9.01 17.971-6.903 20.205z" fill="#ffed8d"/><path d="M611.915 289.068c25.5 62.42 115.32 129.53 86.61 166.85-21.78 28.3-93.46 4.36-146.42-18.68l-.78-.33c-14.05-6.13-26.75-12.18-36.81-17.14 0 0-.26-.13-.74-.36-4.36-2.17-8.22-4.1-11.43-5.75-.15.2-.31.4-.47.6-.11.15-.22.3-.34.45-2.58 3.33-5.29 6.8-8.11 10.38-33.17 42.14-81.31 98.71-117.77 106.88-4.57 1.03-8.97 1.29-13.12.67-2.06-.3-4.07-.83-6.01-1.59-2.95-1.16-5.35-3.05-7.27-5.57-.39-.51-.77-1.05-1.12-1.61-15.67-24.9 5.32-98.87 2.45-144.36-.24-3.87-.65-7.53-1.28-10.94-.78-4.28-1.89-8.16-3.4-11.54-.58-1.29-1.21-2.5-1.91-3.63-7.15-11.68-71.22-12.02-114.95-21.62-19.79-4.33-35.42-10.57-39.71-20.61 0-.01-.01-.01-.01-.01a14.55 14.55 0 0 1-1.06-3.93c-.06-.49-.1-.99-.14-1.49v-.01c-2.41-40.04 93.88-84.01 135.34-114.03 4.34-3.14 8.07-6.13 11.03-8.94.35-.78.68-1.59.98-2.42v-.02c16.98-46.52-43.45-157.91-9.19-175.74.52-.28 1.08-.53 1.65-.76 11.67-4.67 25.55-3.26 40.34 2.22 4.08 1.51 8.23 3.33 12.42 5.43 51.44 25.61 109.36 91.49 124.17 119.78.12.23.24.45.35.67 1.39-.31 2.84-.62 4.35-.91 25.29-5 67.14-8.14 106.59-6.77h.01c21.9.76 43.07 2.91 60.24 6.91 19.8 4.61 34.3 11.68 38.51 21.9 15.38 37.37-76.1 89.73-104.63 120.71v.02c-.92 1-1.77 1.97-2.55 2.92 1.07 4.08 2.47 8.19 4.16 12.33 0 .01.01.03.02.04z" fill="#ffdf68"/><path d="M367.106 533.969a31.92 31.92 0 0 1-4.719-.342 28.27 28.27 0 0 1-6.227-1.648c-3.041-1.196-5.631-3.179-7.701-5.895a22.062 22.062 0 0 1-1.173-1.686c-9.604-15.26-5.819-47.618-1.811-81.876 2.582-22.069 5.251-44.889 4.111-62.95-.25-4.024-.663-7.563-1.265-10.821-.789-4.327-1.909-8.133-3.329-11.314a29.907 29.907 0 0 0-1.847-3.511c-4.086-6.675-30.213-9.684-57.874-12.869-18.37-2.116-39.19-4.514-56.441-8.301-23.206-5.077-36.417-11.983-40.379-21.109a.967.967 0 0 1-.047-.097 15.461 15.461 0 0 1-1.132-4.198c-.062-.504-.103-1.019-.144-1.533-1.83-30.41 49.994-61.772 95.718-89.443 15.14-9.162 29.439-17.816 40.033-25.486 4.45-3.22 7.98-6.074 10.784-8.719.306-.692.589-1.393.842-2.089.009-.036.019-.072.031-.105 7.733-21.186-.81-56.024-9.071-89.715-9.66-39.396-18.785-76.606.359-86.569.49-.264 1.062-.528 1.737-.8 11.198-4.481 25.012-3.737 41.062 2.21 4.056 1.501 8.269 3.343 12.521 5.474 51.74 25.76 110.074 92.458 124.604 120.202 1.169-.256 2.379-.51 3.63-.75 27.009-5.34 69.938-8.068 106.813-6.787 23.917.83 44.249 3.163 60.442 6.935 21.976 5.116 35.167 12.684 39.208 22.493 11.198 27.208-31.03 60.752-68.287 90.348-14.495 11.514-28.189 22.392-36.436 31.317a.876.876 0 0 1-.095.123 69.12 69.12 0 0 0-2.187 2.485c1.013 3.767 2.349 7.693 3.974 11.677l.034.073c9.875 24.173 29.309 48.876 48.104 72.766 28.994 36.855 56.379 71.665 38.373 95.072-21.847 28.386-92.33 5.677-147.611-18.373l-.771-.326c-11.824-5.159-24.223-10.932-36.862-17.164-.01-.005-.264-.132-.73-.355-4.259-2.12-7.744-3.863-10.718-5.385a12.33 12.33 0 0 1-.309.407c-2.572 3.32-5.284 6.792-8.105 10.374-33.117 42.073-81.415 98.963-118.337 107.237-3.029.683-5.963 1.025-8.768 1.025zM190.254 310.775c3.645 8.531 16.403 15.081 39.004 20.026 17.152 3.765 37.024 6.054 56.241 8.267 30.592 3.523 54.756 6.306 59.348 13.808a31.757 31.757 0 0 1 1.969 3.742c1.487 3.329 2.655 7.288 3.472 11.771.616 3.336 1.04 6.954 1.294 11.057 1.151 18.24-1.529 41.151-4.121 63.308-3.965 33.898-7.71 65.916 1.519 80.582.314.503.673 1.019 1.068 1.535 1.846 2.422 4.147 4.187 6.842 5.247a26.249 26.249 0 0 0 5.788 1.531c3.931.587 8.221.366 12.756-.656 36.301-8.135 84.276-64.69 117.204-106.523 2.818-3.578 5.527-7.046 8.105-10.374.12-.15.221-.288.322-.427.185-.233.336-.422.479-.611a1 1 0 0 1 1.257-.289c3.122 1.605 6.823 3.457 11.418 5.744.477.228.742.361.742.361 12.607 6.216 24.977 11.976 36.762 17.118l.77.326c54.637 23.769 124.178 46.355 145.238 18.991 17.057-22.173-9.861-56.39-38.36-92.615-18.872-23.988-38.385-48.792-48.37-73.215a.94.94 0 0 1-.031-.073h-.002c-1.736-4.251-3.149-8.441-4.202-12.454-.081-.31-.009-.64.194-.888a69.113 69.113 0 0 1 2.491-2.858.851.851 0 0 1 .097-.125c8.342-9.058 22.145-20.023 36.759-31.632 34.888-27.713 78.307-62.204 67.682-88.02-3.78-9.177-16.502-16.345-37.812-21.307-15.841-3.69-36.605-6.071-60.048-6.884-36.75-1.277-79.492 1.437-106.371 6.751-1.505.289-2.945.597-4.326.905a1 1 0 0 1-1.112-.529 20.05 20.05 0 0 0-.212-.408l-.13-.247c-14.415-27.534-72.34-93.762-123.729-119.347-4.189-2.1-8.334-3.912-12.321-5.387-15.571-5.77-28.901-6.52-39.621-2.23-.604.243-1.11.477-1.547.712-17.763 9.245-8.82 45.715.648 84.326 8.322 33.938 16.927 69.028 9.038 90.792a.76.76 0 0 1-.03.102c-.3.83-.639 1.667-1.008 2.49a.975.975 0 0 1-.224.315c-2.892 2.746-6.533 5.698-11.132 9.025-10.66 7.719-24.994 16.393-40.17 25.577-43 26.022-96.514 58.408-94.758 87.583.037.476.076.962.134 1.438a13.42 13.42 0 0 0 .957 3.587l.04.082z" fill="#670a39"/><path d="M390.6 173.575c-14.087 14.692-42.687 12.727-52.52-3.187-.401-.649-.095 4.762.445-3.018 0-.01-.234-15.366-.731-21.081-5.735-41.5-28.489-109.065-20.169-131.181 12.028-17.275 36.414 3.355 54.028 28.377 27.913 39.652 47.344 100.474 18.948 130.09zm-77.895 68.682c-9.38 25.43-51.666 57.605-80.357 64.971-22.81 5.856-45.13 2.535-43.037-12.148 11.733-32.173 66.374-60.834 106.69-86.203 16.705-.783 22.485 17.7 16.705 33.381zm64.786 261.984c-14.331 16.008-35.376 13.114-35.201-8.223-.39-.51-.009.66 0 0 .536-39.773 7.368-64.774 8.567-107.285 8.012-36.556 58.303-30.837 59.273 4.188.953 34.386-11.971 88.234-32.64 111.321z" fill="#ffed8d"/><path d="M501.875 414.258v.01c-38.688 49.897-105.604 132.366-145.35 116.78-3.55-1.39-6.3-3.85-8.39-7.18 38.733 24.397 107.327-88.511 119.083-108.544 1.435-2.445 3.7-4.309 6.404-5.159 9.791-3.081 23.227-.005 28.253 4.093zm-152.57-45.69c-1.07-5.9-2.78-11.04-5.31-15.17-10.39-16.97-150.256-10.027-155.73-46.17 16.952 27.568 67.05 21.219 102.909 25.431 42.196 4.957 67.109 10.957 58.131 35.909zm149.064-168.174c8.97-4.887 33.262-2.344 46.36 21.998-2.687-.303-2.465 1.149-5.043-2.596s-19.069-22.528-41.318-19.401zm-22.206 61.647c18.642-15.175 46.241-21.74 63.978-20.947s16.649-6.848 16.649-6.848-1.826 5.436-15.613 3.077-43.297 2.597-65.015 24.718zm28.702-130.793c-3.293 1.854-13.853 5.622-21.561 9.014a5.256 5.256 0 0 1-7.068-3.044C462.721 99.511 413.541 33.11 357.261 2.699c60.825 18.091 131.583 97.949 147.603 128.55z" fill="#ffae5d"/><path d="M607.735 276.698c17.22 65.74 121.41 139.42 90.79 179.22-30.38 39.48-157.83-22.69-196.18-42.26l-.81 1.05c-2.2-1.38-4.44-2.69-6.73-3.92 50.325 13.045 149.325 49.436 172.021 30.112 21.883-18.632-34.36-87.639-58.949-127.408-5.809-9.396-18.754-2.899-22.628-10.991-15-22.826 79.098-94.146 96.4-118.795 17.662-25.162-5.823-54.225-65.484-59.468 47.16 1.64 90.89 9.72 98.75 28.81 15.88 38.57-82.13 93.13-107.18 123.65z" fill="#ffae5d"/><path d="M509.565 131.008c-3.21 1.25-6.75 2.34-10.63 3.21-16.365-28.268-71.979-97.385-118.24-122.75 51.44 25.61 109.36 91.49 124.17 119.78.12.23.24.45.35.67 1.39-.31 2.84-.62 4.35-.91zm100.72 142.75c10.497-15.838 71.75-66.636 86.932-84.708 31.228-37.171-4.696-57.391-38.348-60.742h2.822c25.874 3.351 49.014 14.52 53.224 24.74 15.38 37.37-76.1 89.73-104.63 120.71zm88.24 182.16c-21.78 28.3-93.46 4.36-146.42-18.68 65.04 27.88 127.287 29.495 138.174 17.508 13.841-15.24-1.276-45.004-21.106-73.174-19.81-28.16-49.669-72.724-57.259-92.504 25.5 62.42 115.32 129.53 86.61 166.85zm-204.26-33.91-.84 3.08c-33.17 42.14-81.31 98.71-117.77 106.88 21.67-9.35 45.424-31.275 58.084-45.005 19.24-20.87 40.074-46.25 60.526-64.955z" fill="#ffdf68"/><path d="M367.2 534.002c-3.857 0-7.545-.649-11.044-2.021-20.226-7.932-15.587-47.55-10.675-89.494 4.096-34.977 8.332-71.145-2.335-88.567-4.088-6.676-30.234-9.686-57.915-12.873-44.609-5.135-95.17-10.956-97.964-33.701-3.787-30.838 48.996-62.781 95.567-90.964 20.898-12.646 40.642-24.595 50.827-34.21 9.223-20.883.369-56.988-8.194-91.908-9.937-40.52-19.322-78.792 2.1-87.372 54.554-21.85 156.885 87.172 178.185 127.885 24.556-5.363 72.79-9.529 118.467-7.193 30.383 1.553 82.686 7.397 91.619 29.085 11.199 27.193-31.009 60.732-68.249 90.322-15.877 12.616-30.887 24.542-38.751 33.952 7.444 27.742 30.147 56.598 52.106 84.509 28.996 36.855 56.384 71.666 38.371 95.077-13.249 17.219-45.614 17.674-96.196 1.352-28.813-9.298-63.544-24.145-100.487-42.956-43.946 56.662-97.638 119.073-135.431 119.077zM327.939 3.82l.372.928c-19.809 7.933-10.625 45.386-.901 85.039 8.668 35.348 17.632 71.9 7.997 93.382a.99.99 0 0 1-.224.316c-10.299 9.787-30.221 21.843-51.313 34.607-43.771 26.489-98.246 59.456-94.617 89.01 2.601 21.182 54.503 27.157 96.207 31.958 30.615 3.524 54.796 6.308 59.392 13.815 11.028 18.012 6.751 54.529 2.616 89.844-4.82 41.156-9.372 80.031 9.418 87.399 3.138 1.23 6.528 1.845 10.162 1.845 16.054.001 36.904-11.984 62.19-35.784 25.723-24.211 50.992-55.612 72.319-83.134a.999.999 0 0 1 1.245-.278c49.154 25.079 166.547 79.427 194.927 42.542 17.064-22.177-9.856-56.394-38.357-92.621-22.216-28.238-45.189-57.438-52.6-85.734-.081-.31-.009-.64.194-.888 7.905-9.635 23.193-21.782 39.378-34.643 34.872-27.708 78.271-62.192 67.644-87.994-14.378-34.912-155.426-32.43-208.553-20.535a1 1 0 0 1-1.109-.521c-9.787-19.182-40.601-56.721-75.228-86.338-24.283-20.77-69.666-53.752-100.788-41.288l-.372-.928z" fill="#670a39"/><path d="M487.61 139.963a1 1 0 0 1-.483-1.876c9.909-5.457 24.894-8.525 30.877-9.591a1 1 0 0 1 .351 1.969c-5.885 1.048-20.615 4.06-30.263 9.374a.997.997 0 0 1-.482.124zm107.217 160.044a1 1 0 0 1-.992-1.135c1.821-13.295 8.819-19.793 18.505-28.787 1.01-.938 2.052-1.906 3.126-2.915a1 1 0 1 1 1.371 1.457 680.452 680.452 0 0 1-3.135 2.924c-9.731 9.036-16.16 15.006-17.884 27.593a1 1 0 0 1-.99.864zm-268.045-99.979a1 1 0 0 1-.805-1.592c5.565-7.577 8.956-15.758 10.369-25.012a1 1 0 0 1 1.977.301c-1.463 9.581-4.974 18.051-10.734 25.894a.998.998 0 0 1-.807.408zm179.573 216.665a.997.997 0 0 1-.522-.148c-7.576-4.653-16.09-6.686-27.606-6.582-.581-.011-1.004-.439-1.009-.991s.439-1.004.991-1.009c11.753-.101 20.863 2.083 28.67 6.878a1 1 0 0 1-.524 1.852zm33.332-194.462a.999.999 0 0 1-.848-.469c-8.222-13.094-26.105-24.169-41.803-20.036a1 1 0 0 1-.51-1.934c17.212-4.532 35.519 7.389 44.006 20.906a1 1 0 0 1-.846 1.532z" fill="#670a39"/><path d="M472.922 263.907c-1.971 0-3.861-.8-5.326-2.254-3.116-3.097-3.878-10.066-.325-13.785a86.32 86.32 0 0 1 10.753-9.545 1 1 0 1 1 1.198 1.601 84.374 84.374 0 0 0-10.504 9.324c-2.701 2.828-2.128 8.585.287 10.985 1.095 1.087 2.497 1.679 3.947 1.673 1.521-.009 3-.666 4.166-1.85 18.882-19.377 44.949-27.65 71.514-22.696 2.076.39 4.038-.011 5.384-1.098 1.116-.901 1.728-2.203 1.771-3.766.115-3.874-3.763-8.012-8.136-8.684a98.136 98.136 0 0 0-16.917-1.192c-.555.025-1.008-.43-1.017-.982a.999.999 0 0 1 .982-1.017c5.7-.101 11.508.309 17.259 1.216 5.378.826 9.972 5.835 9.827 10.717-.059 2.133-.952 4.004-2.514 5.265-1.802 1.455-4.356 2.004-7.008 1.508-25.896-4.831-51.307 3.235-69.718 22.129-1.545 1.57-3.527 2.439-5.583 2.451h-.042zm29.415 1.981a1 1 0 0 1-.698-1.716c7.831-7.626 23.074-12.435 33.98-10.72a1 1 0 0 1-.31 1.976c-10.359-1.627-24.838 2.937-32.274 10.177a.998.998 0 0 1-.698.284zm-34.458-78.586a1 1 0 0 1-.471-1.883c13.248-7.045 29.942-6.015 40.213-2.991a1 1 0 1 1-.565 1.919c-9.91-2.917-25.993-3.923-38.709 2.839a.99.99 0 0 1-.469.117z" fill="#670a39"/><path d="M490.336 208.028c-5.094-1.696-9.92 7.565-12.438 13.528-2.046 4.844-2.96 12.69 1.149 12.69s7.109-4.826 9.592-10.255c2.263-4.946 4.197-15.13 1.697-15.962z" fill="#ffed8d"/><ellipse cx="396.324" cy="271.959" fill="#ffae5d" rx="36.391" ry="56.345" transform="matrix(.95858146 -.2848185 .2848185 .95858146 -61.043 124.142)"/><ellipse cx="390.6" cy="271.98" fill="#e7dcdc" rx="36.391" ry="55.487" transform="matrix(.95858146 -.2848185 .2848185 .95858146 -61.286 122.513)"/><path d="M399.359 327.187c-7.577 0-15.49-3.246-22.897-9.504-9.721-8.213-17.429-20.662-21.705-35.053-8.871-29.857-.009-58.925 19.755-64.797 19.763-5.874 43.059 13.644 51.931 43.498 4.276 14.392 4.616 29.03.957 41.219-3.704 12.337-11.059 20.711-20.711 23.578a25.648 25.648 0 0 1-7.329 1.06zm-17.555-108.406c-2.271 0-4.52.315-6.722.969-18.707 5.558-26.964 33.51-18.407 62.31 4.166 14.023 11.652 26.131 21.079 34.095 9.307 7.864 19.381 10.724 28.365 8.055s15.861-10.566 19.365-22.237c3.548-11.819 3.208-26.051-.958-40.073-7.549-25.409-25.705-43.12-42.722-43.12z" fill="#670a39"/><path d="M417.37 261.441c8.066 27.147 1.704 56.045-16.435 61.435-18.139 5.389-37.13-14.527-45.196-41.674s0-55.957 15.911-60.534c18.185-5.231 37.654 13.625 45.72 40.773z" fill="#fff8ea"/><path d="M399.359 327.187c-7.577 0-15.49-3.246-22.897-9.504-9.721-8.213-17.429-20.662-21.705-35.053-8.871-29.857-.009-58.925 19.755-64.797 19.763-5.874 43.059 13.644 51.931 43.498 4.276 14.392 4.616 29.03.957 41.219-3.704 12.337-11.059 20.711-20.711 23.578a25.648 25.648 0 0 1-7.329 1.06zm-17.555-108.406c-2.271 0-4.52.315-6.722.969-18.707 5.558-26.964 33.51-18.407 62.31 4.166 14.023 11.652 26.131 21.079 34.095 9.307 7.864 19.381 10.724 28.365 8.055s15.861-10.566 19.365-22.237c3.548-11.819 3.208-26.051-.958-40.073-7.549-25.409-25.705-43.12-42.722-43.12z" fill="#670a39"/><ellipse cx="379.116" cy="273.781" fill="#670a39" rx="25.287" ry="40.322" transform="matrix(.95858146 -.2848185 .2848185 .95858146 -62.275 119.317)"/><path d="M385.991 314.098c-12.691 0-26.331-13.506-32.073-32.83-3.12-10.502-3.485-21.154-1.026-29.994 2.505-9.004 7.638-15.079 14.455-17.104 13.893-4.129 30.478 10.282 36.968 32.124 3.12 10.502 3.485 21.154 1.026 29.994-2.505 9.004-7.638 15.079-14.455 17.104a17.127 17.127 0 0 1-4.895.706zm-13.678-78.644a15.38 15.38 0 0 0-4.396.633c-6.133 1.822-10.784 7.406-13.098 15.723-2.359 8.482-1.999 18.741 1.016 28.888 5.483 18.455 18.295 31.409 30.084 31.41a15.38 15.38 0 0 0 4.396-.633c6.133-1.822 10.784-7.406 13.098-15.723 2.359-8.482 1.999-18.741-1.016-28.888-5.483-18.455-18.295-31.41-30.084-31.41z" fill="#670a39"/><ellipse cx="363.61" cy="256.668" fill="#fff8ea" rx="8.22" ry="5.47" transform="matrix(.12133231 -.99261194 .99261194 .12133231 64.72 586.449)"/><path d="M340.086 228.007a1 1 0 0 1-.907-1.419c4.487-9.721 14.702-22.965 28.726-28.298a1 1 0 1 1 .711 1.869c-13.461 5.119-23.293 17.888-27.621 27.267a1 1 0 0 1-.909.581z" fill="#670a39"/><path d="M450.988 331.29c6.002-11.698 20.031-5.449 29.506-10.393 14.761-7.701 8.54-27.871 36.095-29.067 24.93-1.082 40.363 40.652-1.353 62.052-41.716 21.401-74.143-3.307-64.249-22.593z" fill="#fff8ea"/><g fill="#670a39"><path d="M483.638 363.199c-12.569 0-22.752-4.291-29.008-10.548-6.507-6.508-8.201-14.664-4.531-21.818 3.961-7.72 11.167-8.138 18.135-8.542 4.107-.238 8.354-.484 11.798-2.281 5.427-2.832 7.867-7.42 10.449-12.277 4.22-7.937 8.583-16.143 26.065-16.902 11.281-.495 21.405 7.635 24.613 19.759 3.505 13.245-1.344 31.808-25.466 44.182-11.61 5.956-22.52 8.426-32.056 8.426zm-32.649-31.909.89.457c-3.254 6.342-1.697 13.628 4.165 19.49 10.491 10.491 32.721 15.103 58.737 1.756 23.066-11.833 27.751-29.398 24.446-41.892-2.966-11.207-12.253-18.719-22.593-18.272-16.339.709-20.248 8.06-24.386 15.843-2.612 4.913-5.313 9.993-11.29 13.111-3.825 1.996-8.29 2.254-12.608 2.505-6.702.389-13.032.756-16.471 7.458l-.89-.457z"/><path d="M476.682 362.678c-.332 0-.657-.166-.848-.468-7.809-12.417-13.744-24.458-18.143-36.811a1.001 1.001 0 0 1 1.884-.671c4.35 12.213 10.222 24.125 17.952 36.417a1 1 0 0 1-.845 1.533zm23.666-2.881a.998.998 0 0 1-.851-.474c-7.979-12.89-14.096-25.3-18.7-37.939a1 1 0 1 1 1.879-.685c4.557 12.509 10.615 24.799 18.521 37.571a1 1 0 0 1-.849 1.527zm20.31-8.003a.999.999 0 0 1-.82-.426c-8.568-12.227-16.452-28.215-24.81-50.316a1 1 0 1 1 1.871-.707c8.297 21.941 16.107 37.79 24.577 49.876a1 1 0 0 1-.818 1.574zm15.084-15.774a.999.999 0 0 1-.841-.457c-6.912-10.696-13.684-24.43-21.31-43.223a1.001 1.001 0 0 1 1.854-.751c7.578 18.674 14.294 32.302 21.137 42.89a1 1 0 0 1-.839 1.543z"/><path d="M454.379 326.98s3.674-.387 6.348 3.636c-1.78-4.121 1-6.701 1-6.701s-2.978.5-4.522 1.327a29.198 29.198 0 0 0-2.825 1.738z"/><path d="M460.727 331.617a1 1 0 0 1-.834-.447c-2.281-3.431-5.29-3.206-5.418-3.195a1.007 1.007 0 0 1-1.031-.649.997.997 0 0 1 .354-1.16c.054-.039 1.35-.959 2.933-1.806 1.67-.893 4.7-1.409 4.829-1.431a.998.998 0 0 1 .846 1.719c-.087.083-2.226 2.184-.762 5.572a1.001 1.001 0 0 1-.917 1.397zm-3.602-5.189a8.181 8.181 0 0 1 2.009 1.067c.046-.79.227-1.486.461-2.075-.711.198-1.423.438-1.92.704-.188.1-.372.202-.55.304zm15.9 29.224c2.192 4.887-.964 5.152-.964 5.152s5.676 1.545 9.009 1.246c-.068-.005-4.94-1.218-8.045-6.399z"/><path d="M480.146 363.089c-3.458 0-8.131-1.26-8.348-1.32a1 1 0 0 1 .179-1.962c-.001 0 .438-.061.659-.456.336-.6.145-1.799-.524-3.291a1 1 0 0 1 1.77-.924c2.797 4.666 7.161 5.874 7.383 5.932a1 1 0 0 1-.107 1.977c-.321.029-.661.042-1.013.042zm-5.764-2.76c.553.119 1.183.245 1.845.359a15.383 15.383 0 0 1-1.506-1.287 3.159 3.159 0 0 1-.339.927zm9.143-34.583c-1.297-4.043 0-6.816 0-6.816s-1.061.933-2.378 1.611-2.533 1.178-2.533 1.178 3.569.732 4.911 4.027z"/><path d="M483.526 326.746a.999.999 0 0 1-.926-.623c-1.127-2.768-4.155-3.418-4.186-3.424a1 1 0 0 1-.18-1.905c.012-.005 1.195-.493 2.455-1.142a12.298 12.298 0 0 0 2.176-1.474 1 1 0 0 1 1.565 1.175c-.043.095-1.102 2.507.046 6.087a.999.999 0 0 1-.952 1.305zm-2.391-5.078c.266.153.541.328.815.53 0-.346.015-.671.041-.975-.125.071-.254.14-.385.208-.159.082-.317.161-.471.238zm16.969 33.435c1.342 3.749-.743 5.437-.743 5.437s4.722-1.235 6.209-1.742c-.125.041-3.222.471-5.465-3.694z"/><path d="M497.361 361.539a.999.999 0 0 1-.629-1.778c.049-.043 1.496-1.346.431-4.323a1 1 0 0 1 1.822-.811c1.831 3.398 4.184 3.214 4.372 3.191a1 1 0 0 1 .535 1.923c-1.504.514-6.084 1.713-6.278 1.764a.997.997 0 0 1-.253.032zm2.126-3.131c-.03.197-.07.383-.116.559l.636-.173a6.907 6.907 0 0 1-.521-.386zm18.286-11.915c3.292 3.09 5.037 2.871 5.037 2.871l-4.44 2.812s1.13-2.105-.597-5.683z"/><path d="M518.371 353.176a.998.998 0 0 1-.881-1.473c.027-.056.836-1.766-.617-4.776a1 1 0 0 1 1.585-1.164c2.784 2.613 4.264 2.611 4.276 2.604.449-.012.877.276 1.008.707.131.43-.017.894-.397 1.135l-4.44 2.813a.998.998 0 0 1-.535.155zm1.292-3.926c.04.314.06.609.064.883l.703-.445a10.41 10.41 0 0 1-.767-.438zm-21.732-43.437c-.571-3.383.425-7.701.425-7.701s-1.89 1.858-2.728 3.022-1.362 1.985-1.362 1.985 2.636.877 3.665 2.694z"/><path d="M497.931 306.813a.999.999 0 0 1-.87-.508c-.683-1.206-2.478-2.025-3.113-2.239a1.001 1.001 0 0 1-.526-1.485c.022-.035.549-.859 1.394-2.032.878-1.219 2.759-3.072 2.839-3.15a1 1 0 0 1 1.675.938c-.009.041-.943 4.17-.414 7.311a1 1 0 0 1-.985 1.167zm-2.168-4.135c.305.155.646.346.992.575.007-.726.053-1.435.116-2.088-.162.195-.31.382-.432.552-.257.357-.485.683-.676.961zm37.922 29.062c2.278 2.093 4.081.904 4.081.904s-1.474 2.82-1.803 3.337-1.247 1.871-1.247 1.871 1.026-2.832-1.031-6.112z"/><path d="M534.715 338.852a1 1 0 0 1-.94-1.34c.032-.092.813-2.448-.938-5.24a1 1 0 0 1 1.524-1.268c1.608 1.477 2.748.869 2.872.794a1.014 1.014 0 0 1 1.209.126.992.992 0 0 1 .209 1.183c-.153.292-1.504 2.873-1.845 3.41-.333.524-1.264 1.896-1.264 1.896a1 1 0 0 1-.828.439zm.991-4.933c.028.112.054.222.077.332l.159-.296a4.211 4.211 0 0 1-.236-.035zm-19.319-37.408c-.408-3.374 1.94-4.7 1.94-4.7s-2.946-.007-4.987.266-2.833.408-2.833.408c-.1-.05 4.909 1.677 5.881 4.027z"/><path d="M516.386 297.511c-.396 0-.766-.237-.924-.618-.639-1.545-4.115-3.092-5.241-3.451l.291-.913-.174-1.031s.801-.136 2.867-.413c2.085-.279 5-.276 5.123-.275a1 1 0 0 1 .49 1.871c-.063.038-1.757 1.081-1.439 3.71a1 1 0 0 1-.993 1.12zm-2.351-4.51c.528.307 1.053.653 1.529 1.032.124-.441.291-.83.478-1.17-.649.028-1.356.072-2.008.138zM8.086 380.762a1 1 0 0 1-.999-.978c-.168-7.484 2.881-14.82 8.586-20.654 5.869-6.003 13.954-9.732 21.099-9.732a1 1 0 0 1 0 2c-6.626 0-14.163 3.499-19.669 9.13-5.326 5.447-8.173 12.27-8.017 19.211a1 1 0 0 1-.977 1.022h-.023zM29.175 488.87c-.075 0-.151-.009-.228-.026-14.354-3.347-25.976-13.899-28.92-26.258a1 1 0 0 1 1.945-.463c2.773 11.639 13.795 21.594 27.428 24.773a1 1 0 0 1-.226 1.974z"/></g></svg></g></svg>